<?xml version="1.0" encoding="iso-8859-1"?>
<!-- Generator: Adobe Illustrator 19.0.0, SVG Export Plug-In . SVG Version: 6.00 Build 0)  -->
<svg version="1.1" id="Capa_1" xmlns="http://www.w3.org/2000/svg" xmlns:xlink="http://www.w3.org/1999/xlink" x="0px" y="0px"
	 viewBox="0 0 511.999 511.999" style="enable-background:new 0 0 511.999 511.999;" xml:space="preserve">
<g>
	<g>
		<path d="M498.795,403.057c-9.354-12.658-21.562-19.63-34.375-19.63c-5.123,0-10.146,1.133-14.932,3.281
			c-19.253-24.81-17.88-51.511-16.415-79.691c0.627-12.079,1.276-24.569,0.064-36.586c-2.11-20.928-11.263-39.159-26.469-52.721
			c-8.635-7.702-18.99-13.551-30.272-17.254c3.43-5.056,7.188-9.33,9.97-12.236c10.066,9.339,22.563,14.15,35.777,14.149
			c11.756,0,24.081-3.81,35.761-11.628c14.768-9.886,26.979-24.88,33.506-41.138c7.231-18.019,6.571-34.878-1.859-47.471
			c-8.43-12.592-23.749-19.59-43.138-19.706c-0.159-0.001-0.317-0.001-0.476-0.001c-17.307,0-35.588,5.603-50.231,15.405
			c-14.799,9.906-24.251,23.002-27.336,37.872c-2.858,13.78,0.108,28.279,8.328,40.934c-4.086,4.141-10.566,11.367-15.75,20.19
			c-2.4-0.347-4.824-0.605-7.265-0.764c-27.616-1.804-90.856,9.302-107.692,12.384c-8.73-18.791-23.684-34.884-45.799-49.483
			c4.321-19.193,4.143-40.289-1.113-58.683c-6.243-21.85-19.427-41.306-37.126-54.783c-20.576-15.67-46.082-22.39-73.761-19.419
			c-25.425,2.724-45.524,16.846-50.014,35.141c-2.429,9.898,0.446,19.53,7.732,26.821c-1.03,5.277-2.944,9.509-4.049,10.36
			c-4.252,3.271-16.671,10.081-33.223,18.217c-6.915,3.4-10.287,11.489-7.845,18.816l3.469,10.405
			c2.297,6.893,7.49,12.239,14.248,14.668c6.312,2.269,15.855,5.075,27.557,6.593c-24.106,22.464-38.059,53.987-38.059,87.55
			c0,31.637,12.554,60.374,35.35,80.92c8.513,7.673,18.215,14.007,28.781,18.9v37.41c-3.9,2.99-7.55,6.723-10.841,11.177
			c-8.394,11.358-13.208,25.686-13.208,39.308c0,26.463,19.121,44.242,47.582,44.242s47.582-17.779,47.582-44.242
			c0-13.621-4.814-27.948-13.208-39.308c-3.291-4.454-6.941-8.187-10.841-11.176v-25.778c2.823,0.17,5.667,0.26,8.532,0.26
			c31.197,0,61.369-9.963,84.958-28.055c1.737-1.332,3.422-2.705,5.062-4.109c8.306-2.487,72.476-21.348,115.021-23.614
			c13.743,26.785,41.872,72.273,88.543,108.449c-2.907,7.552-4.482,15.555-4.482,23.331c0,26.463,19.121,44.242,47.581,44.242
			c28.461,0,47.582-17.779,47.582-44.242C512.002,428.743,507.188,414.416,498.795,403.057z M383.057,138.75
			c2.27-10.939,9.528-20.778,20.992-28.453c12.059-8.072,27.692-12.87,41.9-12.87c0.124,0,0.25,0,0.374,0.001
			c8.258,0.049,23.236,1.81,30.762,13.05c0,0,0,0,0,0.001c5.509,8.228,5.655,20.452,0.403,33.538
			c-5.349,13.326-15.789,26.134-27.929,34.261c-22.196,14.857-46.279,11.14-59.931-9.251
			C383.302,159.573,380.968,148.821,383.057,138.75z M23.584,146.394c-2.401-0.865-4.257-2.795-5.091-5.297l-3.469-10.406
			c-0.085-0.255,0.009-0.501,0.233-0.611c12.67-6.229,29.158-14.718,35.75-19.788c5.191-3.993,7.846-11.557,9.156-17.165
			c7.449-1.036,26.61-2.083,30.763,13.636c3.957,14.98-1.125,29.189-5.609,41.726c-0.315,0.879-0.624,1.748-0.931,2.613
			c-0.003,0-0.006,0.001-0.008,0.001C57.72,156.436,34.846,150.44,23.584,146.394z M128.253,442.364
			c0,6.859-2.35,29.242-32.582,29.242c-30.232,0-32.582-22.382-32.582-29.242c0-24.338,17.824-43.938,32.582-43.938
			C110.429,398.427,128.253,418.026,128.253,442.364z M87.139,384.491v-24.223c5.528,1.735,11.229,3.109,17.065,4.11v20.113
			c-2.798-0.692-5.648-1.064-8.533-1.064C92.787,383.427,89.936,383.799,87.139,384.491z M428.348,405.472
			c-64.23-50.912-91.574-122.006-91.849-122.735c-1.458-3.875-5.781-5.835-9.656-4.38c-3.878,1.456-5.841,5.78-4.385,9.658
			c0.213,0.567,1.304,3.419,3.341,8.014c-29.395,2.424-65.448,10.964-88.909,17.198c10.442-14.892,16.741-31.92,18.234-49.942
			c0.342-4.129-2.727-7.752-6.854-8.095c-4.122-0.349-7.751,2.727-8.094,6.854c-2.071,24.984-15.073,47.841-36.611,64.357
			c-20.985,16.094-47.916,24.957-75.83,24.957c-28.667,0-55.065-9.565-74.335-26.934c-19.599-17.664-30.393-42.445-30.393-69.777
			c0-34.758,17.106-67.016,45.816-86.586c3.618-0.168,7.343-0.505,11.15-1.028c-0.06,0.441-0.119,0.882-0.165,1.322
			c-0.431,4.119,2.56,7.809,6.679,8.239c4.115,0.443,7.808-2.559,8.24-6.679c0.073-0.696,0.174-1.397,0.301-2.083
			c0.757-4.089,2.531-9.049,4.41-14.299c4.96-13.867,11.134-31.127,5.989-50.607c-6.489-24.564-32.456-27.01-47.971-24.603
			c-3.391-2.943-6.225-7.367-4.711-13.535c3.281-13.37,21.118-22.094,37.043-23.8c51.442-5.509,84.712,27.875,94.866,63.409
			c7.261,25.412,3.476,56.62-9.417,77.654c-5.34,8.712-14.862,19.712-29.898,22.646c-15.68,3.063-31.1-1.052-41.245-11.001
			c-2.958-2.9-7.706-2.855-10.606,0.104c-2.9,2.957-2.854,7.705,0.103,10.605c10.766,10.559,25.716,16.283,41.61,16.283
			c4.289,0,8.647-0.417,13.01-1.269c16.135-3.148,29.904-13.359,39.815-29.529c2.985-4.87,5.544-10.208,7.673-15.857
			c23.958,16.725,37.551,35.382,42.514,58.158c0.765,3.51,3.87,5.905,7.321,5.905c0.529,0,1.066-0.057,1.604-0.174
			c4.047-0.882,6.613-4.878,5.731-8.925c-0.462-2.122-0.994-4.208-1.579-6.267c19.497-3.499,77.037-13.3,101.416-11.704
			c16.653,1.086,32.272,7.434,43.978,17.873c12.356,11.021,19.802,25.901,21.529,43.031c1.097,10.876,0.505,22.255-0.121,34.303
			c-1.462,28.159-3.108,59.842,18.955,88.908c-2.468,2.32-4.815,4.954-7,7.911C429.462,403.843,428.898,404.653,428.348,405.472z
			 M464.42,471.606c-30.231,0-32.581-22.382-32.581-29.242c0-24.338,17.823-43.938,32.581-43.938
			c14.757,0,32.582,19.599,32.582,43.938C497.002,449.224,494.651,471.606,464.42,471.606z"/>
	</g>
</g>
<g>
	<g>
		<path d="M71.703,102.857h-0.08c-4.142,0-7.46,3.357-7.46,7.5s3.398,7.5,7.54,7.5c4.142,0,7.5-3.357,7.5-7.5
			S75.845,102.857,71.703,102.857z"/>
	</g>
</g>
<g>
</g>
<g>
</g>
<g>
</g>
<g>
</g>
<g>
</g>
<g>
</g>
<g>
</g>
<g>
</g>
<g>
</g>
<g>
</g>
<g>
</g>
<g>
</g>
<g>
</g>
<g>
</g>
<g>
</g>
</svg>
