<?xml version="1.0" encoding="utf-8"?>
<!-- Generator: Adobe Illustrator 16.0.0, SVG Export Plug-In . SVG Version: 6.00 Build 0)  -->
<!DOCTYPE svg PUBLIC "-//W3C//DTD SVG 1.1//EN" "http://www.w3.org/Graphics/SVG/1.1/DTD/svg11.dtd">
<svg version="1.1" id="Layer_1" xmlns="http://www.w3.org/2000/svg" xmlns:xlink="http://www.w3.org/1999/xlink" x="0px" y="0px"
	 width="640px" height="480px" viewBox="0 0 640 480" enable-background="new 0 0 640 480" xml:space="preserve">
<g>
	<g>
		<g>
			<path d="M337.496,172.616c-9.405,17.379-11.45,37.881-11.868,57.335c-0.501,23.3,2.066,46.648,6.094,69.565
				c4.147,23.596,9.887,46.938,16.959,69.824c6.097,19.729,12.587,39.844,21.899,58.324c0.333,0.659,0.667,1.317,1.003,1.975
				c0.896,1.759,2.271,3.267,3.98,4.273c0.82,0.482,3.808,1.429,3.117-0.743c-5.805-18.276-12.528-36.233-18.022-54.622
				c-6.832-22.866-12.729-46.043-17.134-69.502c-8.062-42.935-11.892-87.838,1.224-130.165
				C345.472,176.544,338.646,170.491,337.496,172.616L337.496,172.616z"/>
		</g>
	</g>
	<g>
		<g>
			<path d="M290.931,185.462c-2.718-3.781-6.189-7.31-8.14-11.555c-0.632-1.377-9.487-10.436-9.982-5.898
				c-1.286,11.773,1.957,23.707,8.921,33.195c5.158,7.028,14.054,13.107,23.047,12.819c7.178-0.23,12.533-4.901,15.167-11.347
				c4.188-10.25-0.481-22.121-4.586-31.544c-1.204-2.764-3.672-5.186-6.241-6.699c-0.865-0.509-4.819-2.342-4.92,0.104
				c-1.006,24.287-1.75,48.225-6.037,72.239c-4.33,24.249-12.274,46.674-24.553,68.014c3.32,1.977,6.64,3.952,9.96,5.929
				c-4.051-6.365-13.025-18.996-6.885-26.525c5.168-6.337,16.925-4.392,23.839-3.451c26.264,3.571,51.223,13.316,77.114,18.601
				c5.483,1.119,11.048,2.033,16.661,1.94c1.904-0.032,3.764-0.392,5.432-1.317c1.207-0.67,2.016-3.009,2.167-3.24
				c2.4-3.663-7.905-12.329-9.789-9.453c0.042-0.065-0.145,0.161-0.896,0.392c-0.603,0.186-1.241,0.246-1.866,0.292
				c-0.717,0.052-1.407,0.111-2.121,0.207c-1.037,0.138-1.872,0.122-2.003,0.12c-3.294-0.061-8.97-0.643-13.311-1.439
				c-12.447-2.285-24.687-5.637-36.946-8.739c-12.776-3.233-25.617-6.497-38.723-8.069c-8.6-1.031-19.419-2.112-27.147,2.704
				c-12.187,7.595,0.496,28.588,5.342,36.54c0.82,1.345,7.952,9.111,9.96,5.929c12.81-20.309,20.39-44.368,25.185-67.744
				c5.006-24.406,7.095-50.157,6.192-75.063c-3.455-1.375-6.91-2.751-10.365-4.126c5.708,10.197,8.749,30.405-6.284,34.341
				c-2.065,0.541-4.62,0.493-6.422-0.069c-1.512-0.471-1.488-0.526-2.635-1.223c-0.273-0.166-0.526-0.465-0.97-0.992
				c-5.286-6.264-5.562-16.955-5.933-25.291c-2.768-0.79-5.537-1.58-8.305-2.37c3.485,4.401,7.326,8.485,10.901,12.807
				c1.104,1.334,2.752,2.839,4.54,3.123C292.407,188.938,291.634,186.439,290.931,185.462L290.931,185.462z"/>
		</g>
	</g>
	<g>
		<g>
			<path d="M348.288,200.222c4.485,41.164,17.798,82.163,8.286,123.607c3.24,1.615,6.48,3.231,9.721,4.848
				c-5.231-7.687-8.942-16.512-12.786-24.94c-1.879-4.121-3.608-8.315-5.528-12.417c-1.101-2.354-2.555-4.285-4.455-6.061
				c0.884,0.825,0.096,0.007-0.074-0.216c-1.766-2.306-0.188-0.909,0.716,1.218c-0.792-1.866-2.66-3.635-4.538-4.382
				c-1.624-0.647-2.469,0.277-1.796,1.86c0.019,0.044,0.037,0.089,0.056,0.133c-0.014-0.612-0.027-1.226-0.041-1.838
				c-0.682,0.381-0.189,0.855-0.566,1.151c-0.385,0.509-0.49,1.076-0.318,1.703c1.485,7.187,6.195,14.618,9.325,21.197
				c3.429,7.206,6.884,14.644,11.417,21.237c0.799,1.163,8.731,9.345,9.721,4.848c9.391-42.694-4.241-84.241-9.714-126.393
				C357.292,202.547,347.764,195.404,348.288,200.222L348.288,200.222z"/>
		</g>
	</g>
	<g>
		<g>
			<path d="M367.874,259.694c-2.587-18.576-1.791-39.324,13.88-52.007c1.385-1.121,2.885-2.017,4.64-2.388
				c0.626-0.132,0.873-0.1,1.554,0.045c-0.549-0.117-1.837-1.269-1.808-1.233c-0.465-0.562,0.038,0.148,0.295,0.736
				c0.325,0.745,0.54,1.462,0.751,2.237c0.66,2.434,0.997,4.955,1.263,7.457c2.789,26.295-2.946,52.329-3.81,78.501
				c-0.088,2.693-0.19,5.389-0.387,8.076c-0.176,2.426,6.488,8.933,7.496,5.762c2.862-9.009,4.064-18.405,5.075-27.782
				c1.548-14.366,2.428-28.78,2.042-43.234c-0.271-10.144-0.579-22.87-6.78-31.479c-2.671-3.708-6.628-7.319-11.488-7.027
				c-4.215,0.253-7.96,4.492-10.494,7.405c-11.672,13.414-13.331,35.025-7.977,51.542
				C362.611,257.803,368.315,262.86,367.874,259.694L367.874,259.694z"/>
		</g>
	</g>
	<g>
		<g>
			<path d="M364.396,173.377c-1.308-1.958-6.318-8.021-8.885-4.686c-1.669,2.17-1.124,6.556-0.453,8.983
				c0.078-0.418,0.156-0.837,0.234-1.256c-3.423,2.176,5.028,7.754,7.039,8.288c2.683,0.713,5.489,1.031,8.245,1.333
				c1.209,0.132,1.644-0.467,1.551-1.606c-0.385-4.706-1.196-9.134-3.462-13.31c-1.833-3.378-6.077-7.346-10.195-7.174
				c-3.162,0.132-5.067,3.322-6.366,5.794c-2.759,5.251-3.927,10.948-4.265,16.826c-0.114,1.979,5.127,7.594,6.322,4.861
				c2.512-5.741,4.354-12.75,8.841-17.338c0.45-0.46,0.979-1.005,1.573-1.273c0.024-0.01,0.995-0.174,0.569-0.195
				c-1.361-0.069-2.651-1.446-3.403-2.592c1.601,2.44,1.794,6.647,2.132,9.534c0.517-0.536,1.034-1.071,1.551-1.606
				c-1.235-0.093-2.468-0.213-3.7-0.347c-0.976-0.106-1.947-0.239-2.917-0.394c-1.889-0.301-1.467-0.842,0.425,0.715
				c1.079,1.294,2.158,2.589,3.237,3.883c-0.016-0.04-0.03-0.08-0.045-0.12c0.016,0.709,0.031,1.418,0.048,2.127
				c0.035-0.119,0.114-0.201,0.236-0.245c0.283-0.375,0.362-0.794,0.234-1.256c-0.467-1.517-0.642-3.094-0.597-4.678
				c0.021-0.748,0.154-1.471,0.372-2.184c0.061-0.083,0.123-0.165,0.189-0.245c1.127-0.091,0.451-0.444-2.027-1.058
				c0.843,0.765,2.268,2.059,3.551,1.783C365.644,175.682,364.77,173.937,364.396,173.377L364.396,173.377z"/>
		</g>
	</g>
	<g>
		<g>
			<path fill="#AA7B29" d="M170.781,353.513c5.063,18.359,15.938,35.246,33.948,43.014c14.827,6.395,31.734,3.046,45.879-3.44
				c39.191-17.972,59.852-56.867,72.894-96.071c8.631-25.942,12.872-53.517,14.331-80.754c0.719-13.417,0.557-26.879-0.243-40.289
				c-0.74-12.432-1.756-25.325-4.524-37.492c-3.523-15.48-9.369-30.872-17.096-44.729c-4.86-8.718-19.965-30.006-31.657-19.266
				c-5.766,5.296-6.995,14.818-7.783,22.079c-0.314,2.896,7.159,10.625,8.938,6.871c2.623-5.537,6.42-16.403,12.976-18.565
				c1.149-0.379,1.36-0.275,2.347-0.083c-1.157-0.225,0.76,0.698-0.388-0.135c1.764,1.28-1.452-1.393,0.226,0.2
				c1.721,1.634-1.228-1.448,0.415,0.45c1.53,1.768,1.373,1.665,2.705,3.697c8.094,12.347,13.212,27.706,16.616,41.993
				c2.898,12.164,3.821,25.129,4.666,37.574c0.936,13.777,0.895,27.606,0.145,41.39c-1.497,27.495-6.571,54.571-14.813,80.826
				c-11.119,35.421-28.82,70.385-61.958,89.604c-12.133,7.037-26.806,11.804-40.901,9.34c-16.319-2.854-23.829-17.769-28.586-32.167
				c-0.661-1.998-2.816-3.869-4.563-4.897C173.344,352.066,170.096,351.028,170.781,353.513L170.781,353.513z"/>
		</g>
	</g>
</g>
</svg>
