<?xml version="1.0" encoding="iso-8859-1"?>
<!-- Generator: Adobe Illustrator 17.1.0, SVG Export Plug-In . SVG Version: 6.00 Build 0)  -->
<!DOCTYPE svg PUBLIC "-//W3C//DTD SVG 1.1//EN" "http://www.w3.org/Graphics/SVG/1.1/DTD/svg11.dtd">
<svg version="1.1" id="Capa_1" xmlns="http://www.w3.org/2000/svg" xmlns:xlink="http://www.w3.org/1999/xlink" x="0px" y="0px"
	 viewBox="0 0 92.008 92.008" style="enable-background:new 0 0 92.008 92.008;" xml:space="preserve">
<g>
	<path d="M81.247,24.214H54.419h-0.176H37.765h-0.176H10.761c-1.654,0-3,1.346-3,3v2.25c0,1.654,1.346,3,3,3h23.828v24.875v0.503
		v29.166c0,2.757,2.243,5,5,5h0.352c2.757,0,5-2.243,5-5V60.842h2.127v26.166c0,2.757,2.243,5,5,5h0.351c2.757,0,5-2.243,5-5V57.842
		v-0.503V32.464h23.828c1.654,0,3-1.346,3-3v-2.25C84.247,25.56,82.901,24.214,81.247,24.214z"/>
	<path d="M46.003,21.672c5.975,0,10.836-4.861,10.836-10.836S51.978,0,46.003,0c-5.975,0-10.835,4.861-10.835,10.836
		S40.028,21.672,46.003,21.672z"/>
</g>
<g>
</g>
<g>
</g>
<g>
</g>
<g>
</g>
<g>
</g>
<g>
</g>
<g>
</g>
<g>
</g>
<g>
</g>
<g>
</g>
<g>
</g>
<g>
</g>
<g>
</g>
<g>
</g>
<g>
</g>
</svg>
