<?xml version="1.0" encoding="utf-8"?>
<!-- Generator: Adobe Illustrator 16.0.0, SVG Export Plug-In . SVG Version: 6.00 Build 0)  -->
<!DOCTYPE svg PUBLIC "-//W3C//DTD SVG 1.1//EN" "http://www.w3.org/Graphics/SVG/1.1/DTD/svg11.dtd">
<svg version="1.1" id="Layer_1" xmlns="http://www.w3.org/2000/svg" xmlns:xlink="http://www.w3.org/1999/xlink" x="0px" y="0px"
	 width="800px" height="600px" viewBox="0 0 800 600" enable-background="new 0 0 800 600" xml:space="preserve">
<g>
	<g>
		<g>
			<path d="M228.886,351.37c10.325,25.779,26.363,48.197,41.535,71.247c7.467,11.344,14.737,22.724,21.759,34.349
				c6.637,10.988,11.249,22.72,16.855,34.17c0.617,1.26,2.395-2.182,2.386-2.771c-0.407-27.801-14.565-54.942-29.597-77.574
				c-15.347-23.106-32.849-45.054-46.357-69.325C233.592,338.098,227.654,348.295,228.886,351.37L228.886,351.37z"/>
		</g>
	</g>
	<g>
		<g>
			<path d="M273.538,484.745c-16.537-6.132-35.723-11.688-48.133-24.993c-12.632-13.541-14.683-33.961-14.58-51.626
				c0.115-19.786,4.092-39.594,9.601-58.526c5.869-20.168,14.343-39.899,25.693-57.598c5.159-8.044,11.054-15.723,17.9-22.41
				c7.124-6.958,15.643-12.177,22.917-18.923c1.018-0.943,4.724-6.684,1.678-7.118c-7.659-1.089-16.003,6.808-21.228,11.526
				c-7.614,6.875-14.164,14.8-20.156,23.101c-12.908,17.881-22.481,38.292-29.867,59.003c-7.091,19.886-12.26,40.783-14.185,61.836
				c-1.662,18.173-1.067,38.256,5.995,55.299c9.977,24.077,39.321,29.517,61.641,35.775
				C272.625,490.599,275.112,485.328,273.538,484.745L273.538,484.745z"/>
		</g>
	</g>
	<g>
		<g>
			<path d="M220.232,470.861c13.004-34.547,23.54-69.93,38.232-103.849c7.343-16.951,15.873-33.615,26.703-48.726
				c3.811-5.316,9.631-11.989,14.853-16.981c6.348-6.068,13.505-10.832,19.567-17.2c0.918-0.964,3.567-5.498,1.575-6.586
				c-3.257-1.779-5.122-1.169-8.479,0.437c-3.598,1.722-6.839,4.079-9.984,6.513c-7.318,5.662-13.462,12.722-19.037,20.064
				c-12.834,16.901-22.867,35.734-31.595,55.029c-16.535,36.552-27.864,74.931-41.948,112.411c-0.674,1.793-2.8,9.466,1.504,8.997
				C215.892,480.506,218.951,474.266,220.232,470.861L220.232,470.861z"/>
		</g>
	</g>
	<g>
		<g>
			<path d="M316.862,362.376c-3.787-6.201-8.879-11.656-10.664-18.777c-0.922-3.677-4.208-1.375-5.834,0.508
				c-2.643,3.06-5.303,8.203-3.833,12.302c6.541,18.225,13.955,35.923,22.515,53.295c4.068,8.257,8.508,16.285,13.188,24.21
				c4.951,8.382,10.674,16.321,15.426,24.805c2.073,3.701,6.964-2.448,7.981-3.98c2.234-3.364,4.702-8.547,3.05-12.619
				c-8.588-21.169-18.4-41.718-25.653-63.445c-1.759-5.272-3.439-10.561-4.706-15.977c-0.533-2.279-0.963-4.584-1.239-6.908
				c-0.059-0.491-0.097-0.985-0.135-1.478c-0.125-1.642-0.005,1.577-0.012,0.021c-0.004-0.845,0.488-3.579-0.096-0.491
				c0.218-0.918,0.062-0.436-0.47,1.446c0.51-1.588-2.504,4.547-3.156,5.362c-0.028,0.035-2.635,2.111-2.062,1.82
				c0.891-0.452-1.401,0.334-0.378,0.122c1.541-0.32,1.628-0.02,3.485,0.784c2.286,0.989,4.38,2.438,6.398,3.88
				c3.235,2.311,6.083,2.856,10.028,3.143c2.314,0.168,4.436-5.15,4.021-6.926c-1.013-4.34-2.007-8.196-5.163-11.452
				c-2.028-2.092-4.148-4.131-6.544-5.799c-4.317-3.004-8.01-1.862-11.524,1.79c-8.988,9.344-6.78,22.865-3.921,34.12
				c6.436,25.336,17.247,50.063,28.356,73.672c0.472,1.003,1.163,1.965,1.74,2.914c3.677-5.533,7.354-11.066,11.031-16.6
				c-11.736-14.47-20.045-32.539-28.635-48.985c-8.66-16.579-16.595-33.634-24.235-50.705c-2.857,4.898-5.713,9.796-8.57,14.693
				c3.472,1.05,4.936,2.135,7.41,4.959c2.376,2.713,4.652,5.506,6.829,8.38C313.474,373.08,318.33,364.778,316.862,362.376
				L316.862,362.376z"/>
		</g>
	</g>
	<g>
		<g>
			<path d="M338.674,376.635c1.368,7.285,3.066,16.866,9.45,21.613c4.37,3.25,10.023-0.256,13.222-3.437
				c11.638-11.569,17.347-30.068,18.316-46.112c0.833-13.796-5.319-31.422-19.823-36.081c-13.185-4.235-24.958,8.405-31.058,18.46
				c-12.877,21.222-19.484,63.566,12.24,71.572c2.562,0.646,6.502-6.183,4.708-8.072c-10.987-11.577-18.053-25.943-16.565-42.108
				c0.245-2.663,1.151-6.533,1.636-8.034c0.267-0.826,0.572-1.64,0.877-2.452c0.067-0.18,1.178-2.785,0.35-0.938
				c0.345-0.769,0.726-1.521,1.107-2.271c0.254-0.491,0.517-0.978,0.787-1.461c-0.527,0.891-0.513,0.881,0.042-0.031
				c1.664-2.696,2.225-3.375,4.173-5.152c1.832-1.673,3.519-2.927,6.14-3.75c13.16-4.138,24.136,11.533,25.554,22.842
				c0.857,6.839-0.51,14.416-2.558,20.706c-1.225,3.761-1.948,5.394-3.739,8.655c0.789-1.438-2.123,2.94-1.145,1.698
				c-0.419,0.534-0.879,1.032-1.342,1.528c1.047-1.123-1.308,0.936-0.386,0.314c-8.16,5.5-12.042-13.164-12.981-17.922
				c-0.672-3.401-3.875-1.113-5.23,0.455C340.351,369.084,338.043,373.272,338.674,376.635L338.674,376.635z"/>
		</g>
	</g>
	<g>
		<g>
			<path d="M365.11,330.13c2.64,11.009,7.222,21.639,14.895,30.07c1.987,2.183,4.631-0.094,6.076-1.869
				c8.805-10.814,12.81-23.666,14.151-37.391c1.286-13.159-0.141-26.428,1.87-39.534c-3.788,4.397-7.575,8.795-11.363,13.192
				c3.37,9.725,10.882,26.055,23.998,21.9c13.501-4.279,21.306-22.04,23.091-34.886c0.244-1.757-0.733-3.599-2.678-2.593
				c-2.418,1.251-3.777,4.062-4.793,6.43c-2.188,5.104-4.46,14.137-11.861,12.12c-8.651-2.358-13.559-11.792-16.883-19.333
				c-1.329-3.015-5.408,0.83-6.388,1.964c-2.668,3.089-4.57,7.15-4.975,11.228c-0.994,10.012-0.746,20.097-1.008,30.142
				c-0.202,7.758,0.017,18.402-4.971,24.934c1.758-0.888,3.517-1.775,5.275-2.663c-7.07-6.822-12.924-14.963-16.609-24.083
				c-0.857-2.123-3.78,0.619-4.418,1.358C366.707,323.215,364.405,327.191,365.11,330.13L365.11,330.13z"/>
		</g>
	</g>
	<g>
		<g>
			<path d="M382.691,181.157c5.362,9.43,10.375,19.095,15.754,28.55c5.219,9.172,10.33,18.434,15.283,27.753
				c4.855,9.138,9.288,18.497,14.246,27.58c4.786,8.766,9.486,18.209,15.783,26.016c2.052,2.543,5.359-4.972,5.032-6.667
				c-4.107-21.278-13.842-41.31-24.399-60.04c-5.057-8.969-10.396-17.704-16.284-26.15c-3.09-4.432-6.283-8.789-9.531-13.105
				c-3.201-4.254-7.288-7.577-10.915-11.415C385.42,171.307,381.472,179.012,382.691,181.157L382.691,181.157z"/>
		</g>
	</g>
	<g>
		<g>
			<path d="M417.41,282.069c-4.188-2.827-6.582-6.598-7.47-11.221c-0.459-2.387-1.049-4.625-1.189-7.075
				c0.071,1.247,0.076-2.102,0.116-2.729c0.045-0.689,0.12-1.376,0.195-2.062c0.055-0.47,0.116-0.939,0.184-1.407
				c-0.174,1.054-0.176,1.085-0.004,0.094c0.538-3.046,1.333-6.061,2.195-9.029c-0.67,2.305,0.793-2.313,1.051-3.046
				c0.685-1.944,1.439-3.862,2.215-5.772c0.343-0.847,0.702-1.687,1.061-2.528c1.219-2.856-0.947,2.093,0.35-0.774
				c0.792-1.75,1.624-3.482,2.467-5.209c1.906-3.907,3.952-7.745,6.058-11.548c2.395-4.326,2.645-4.716,5.404-9.259
				c2.403-3.957,4.893-7.861,7.422-11.738c4.842-7.42,9.839-14.745,14.96-21.975c9.204-12.993,17.373-23.493,27.038-36.561
				c3.292-4.451,6.137-8.511,9.944-13.656c1.114-1.505,2.93-9.46-0.941-6.076c-20.383,17.817-36.835,40.74-52.011,62.974
				c-10.082,14.771-19.523,30.178-27.244,46.324c-6.402,13.389-12.809,28.481-12.677,43.598c0.042,4.858,0.395,10.433,3.641,14.309
				c2.779,3.319,6.668,5.768,10.768,7.064C415.069,296.072,421.032,284.515,417.41,282.069L417.41,282.069z"/>
		</g>
	</g>
	<g>
		<g>
			<path d="M452.198,429.87c-1.225-1.644-2.991-5.025-4.832-6.097c-2.09-1.218-4.761,3.29-5.388,4.556
				c-2.764,5.586-1.038,9.424,1.674,14.483c3.419,6.38,6.546,12.894,9.947,19.279c5.606,10.527,11.653,20.758,18.504,30.521
				c6.096,8.688,12.877,19.107,22.086,24.704c2.229,1.354,4.979-5.297,4.527-6.844c-3.088-10.585-8.852-20.313-14.575-29.69
				c-5.892-9.653-11.943-19.212-17.763-28.908c-3.729-6.212-7.027-12.616-11.229-18.526c-1.545-2.173-3.116-4.327-4.64-6.517
				c-0.572-0.822-3.479-4.121-2.603-2.521c-1.287,3.412-2.574,6.824-3.862,10.236c-1.123,0.896-2.136,0.498-1.146,1.324
				c1.146,0.954,2.2,2.047,3.253,3.096C448.896,441.697,454.062,432.373,452.198,429.87L452.198,429.87z"/>
		</g>
	</g>
	<g>
		<g>
			<path d="M448.788,428.519c0.492-8.485,2.284-16.833,5.74-24.627c3.595-8.104,9.334-14.324,14.027-21.691
				c0.619-0.972,4.064-10.606-0.232-8.054c-9.019,5.358-15.253,17.639-19.574,26.801c-5.235,11.102-8.407,23.119-9.186,35.37
				c-0.193,3.049,1.803,4.124,4.168,2.124C446.449,436.143,448.58,432.09,448.788,428.519L448.788,428.519z"/>
		</g>
	</g>
	<g>
		<g>
			<path d="M463.088,465.987c3.857-11.484,6.665-23.286,10.491-34.778c1.857-5.58,4.052-10.993,6.815-16.188
				c2.964-5.572,7.07-10.413,10.185-15.889c0.296-0.52,1.716-4.472-0.135-4.127c-5.361,0.999-9.401,7.67-12.268,11.765
				c-4.144,5.92-7.094,12.841-9.777,19.511c-5.312,13.198-8.44,27.156-13.136,40.567c-0.486,1.389-2.189,7.327,1.163,6.962
				C459.658,473.458,462.203,468.624,463.088,465.987L463.088,465.987z"/>
		</g>
	</g>
	<g>
		<g>
			<path d="M508.008,489.924c2.881-12.43,5.779-24.854,9.024-37.194c3.119-11.859,7.757-23.635,9.836-35.701
				c0.884-5.133-3.116-2.03-4.517,0.46c-6.571,11.689-10.086,25.17-13.756,38.004c-3.732,13.055-6.982,26.244-10.252,39.42
				c-0.53,2.137-0.463,6.899,3.055,5.08C504.875,498.193,507.166,493.556,508.008,489.924L508.008,489.924z"/>
		</g>
	</g>
	<g>
		<g>
			<path d="M498.989,363.689c-2.282-3.647-4.084-7.564-6.657-11.021c-2.291-3.078-8.042,6.663-6.313,9.5
				c8.962,14.699,17.681,29.594,26.744,44.267c8.192,13.262,18.188,27.507,31.028,36.661c2.799,1.995,5.946-6.973,5.204-8.922
				c-5.748-15.096-14.269-29.278-23.458-42.5c-9.506-13.677-21.552-26.489-28.837-41.562c-2.35,3.537-4.701,7.074-7.051,10.611
				c5.571,11.474,13.537,22.457,22.076,31.891c8.823,9.745,19.035,18.028,31.427,22.698c3.892,1.467,7.243-5.87,8.289-8.364
				c15.794-37.655-25.097-69.147-46.784-93.771c-3.084-3.501-8.371,7.492-6.965,10.48c5.137,10.913,11.615,21.016,19.032,30.514
				c7.35,9.41,16.631,16.597,26.315,23.474c1.128,0.801,3.256-3.289,2.478-4.249c-7.7-9.501-14.675-19.555-22.143-29.232
				c-7.394-9.581-13.711-19.969-18.718-30.986c-2.321,3.493-4.644,6.987-6.965,10.48c11.154,13.058,22.516,26.121,32.096,40.401
				c7.727,11.517,19.297,29.469,13.12,43.828c2.763-2.788,5.526-5.576,8.289-8.364c-12.017-4.826-22.305-12.792-31.126-22.17
				c-8.353-8.88-15.266-19.239-23.917-27.783c-2.155-2.128-9.1,8.58-6.505,11.153c11.119,11.029,20.538,24.569,29.908,37.084
				c10.133,13.534,19.468,27.561,23.567,44.145c1.957-2.593,3.914-5.186,5.87-7.778c-8.578-14.25-17.275-28.628-26.408-42.522
				c-4.75-7.225-9.344-14.591-14.414-21.598c-4.826-6.67-10.4-12.273-16.331-17.87c-1.778,3.489-3.556,6.979-5.334,10.469
				c2.961,2.37,5.955,4.701,9.135,6.772C497.332,370.525,499.82,365.018,498.989,363.689L498.989,363.689z"/>
		</g>
	</g>
	<g>
		<g>
			<path d="M530.199,310.868c0.293,5.05,2.121,9.697,3.817,14.431c2.64,7.365,5.817,14.424,9.283,21.435
				c3.583,7.246,7.27,14.688,11.787,21.403c3.369,5.01,8.57,14.701,15.566,13.376c2.702-0.512,4.235-4.758,4.137-7.124
				c-0.33-7.922-6.098-14.176-10.077-20.737c-4.129-6.807-8.574-13.382-12.51-20.315c-5.565-9.804-9.979-20.764-16.273-30.062
				C533.757,300.066,530.104,309.24,530.199,310.868L530.199,310.868z"/>
		</g>
	</g>
	<g>
		<g>
			<path d="M527.533,317.365c-2.958-7.266-5.958-18.22-1.54-25.61c3.744-6.263,11.418-8.745,18.318-9.04
				c19.331-0.828,35.536,17.202,40.004,34.604c4.753,18.512,0.664,37.888-5.481,55.55c-6.021,17.303-15.253,32.583-25.22,47.814
				c-1.286,1.965-2.584,4.678-2.214,7.109c0.309,2.035,2.209,1.706,3.409,0.597c14.882-13.757,24.657-34.404,32.188-52.854
				c8.22-20.142,13.509-42.985,10.288-64.776c-2.923-19.768-17.723-37.844-37.748-41.866c-20.129-4.043-36.418,10.019-42.052,28.504
				c-3.051,10.012-0.911,20.783,3.332,30.074C522.268,330.646,528.93,320.795,527.533,317.365L527.533,317.365z"/>
		</g>
	</g>
</g>
</svg>
