<?xml version="1.0" encoding="utf-8"?>
<!-- Generator: Adobe Illustrator 16.0.0, SVG Export Plug-In . SVG Version: 6.00 Build 0)  -->
<!DOCTYPE svg PUBLIC "-//W3C//DTD SVG 1.1//EN" "http://www.w3.org/Graphics/SVG/1.1/DTD/svg11.dtd">
<svg version="1.1" id="Layer_1" xmlns="http://www.w3.org/2000/svg" xmlns:xlink="http://www.w3.org/1999/xlink" x="0px" y="0px"
	 width="960px" height="560px" viewBox="0 0 960 560" enable-background="new 0 0 960 560" xml:space="preserve">
<g>
	<g>
		<path fill="#999999" d="M668.146,63.762c6.147,46.85,14.582,93.372,21.278,140.143c8.132,56.796,16.065,113.943,16.536,171.42
			c0.187,22.72-1.02,45.864-6.255,68.047c-1.07,4.532-2.485,8.984-4.103,13.35c-1.753,4.731-2.532,6.463-4.707,10.425
			c-0.879,1.602-1.837,3.159-2.85,4.68c-1.077,1.618,0.871-1.093-0.653,0.896c-0.604,0.788-1.241,1.552-1.893,2.303
			c-1.839,2.121,1.109-1.09-0.387,0.424c-0.564,0.569-1.152,1.113-1.749,1.647c-1.273,1.141,2.103-1.738,0.798-0.666
			c-0.298,0.245-0.604,0.48-0.91,0.715c-2.6,1.998,1.405-0.827-0.283,0.239c-0.63,0.398-1.281,0.762-1.939,1.113
			c3.245-1.734,0.697-0.383-0.12-0.034c-0.339,0.145-0.683,0.275-1.026,0.407c-1.427,0.546,2.154-0.729,0.708-0.258
			c-0.819,0.267-1.655,0.479-2.495,0.672c-0.365,0.084-0.733,0.153-1.102,0.223c-1.426,0.271,1.833-0.264,0.395-0.065
			c-0.759,0.104-1.522,0.166-2.287,0.215c-1.777,0.112-3.561,0.136-5.341,0.046c-0.871-0.045-1.738-0.131-2.604-0.229
			c1.616,0.183-1.148-0.206-1.59-0.286c-2.071-0.378-4.111-0.914-6.125-1.522c-4.458-1.347-8.748-3.22-12.902-5.312
			c-25.983-13.083-47.697-35.172-67.449-56.041c-6.847-7.234-13.121-16.262-21.031-22.318c-0.229,1.572-0.458,3.146-0.688,4.718
			c0.376-0.871,0.819-1.708,1.328-2.51c-1.101,1.635-2.543,2.896-4.328,3.784c0.943-0.447,2.224-0.578,3.237-0.81
			c4.168-0.948,7.937-2.407,11.727-4.376c2.612-1.356,5.683-4.081,6.623-6.972c1.195-3.678-3.38-2.683-5.242-1.949
			c-3.616,1.424-7.786,0.791-11.498,2.087c-7.098,2.479-12.895,7.399-17.528,13.233c-1.354,1.705-3.422,4.432-2.111,6.72
			c2.578,4.503,6.604,8.314,10.105,12.105c3.623,3.921,7.299,7.793,11.015,11.627c6.418,6.621,13.005,13.079,19.777,19.339
			c10.903,10.077,22.41,19.507,34.813,27.689c8.653,5.71,17.931,10.771,27.895,13.772c4.152,1.25,8.443,1.996,12.764,2.334
			c1.698,0.133,3.404,0.139,5.104,0.053c0.408-0.021,0.815-0.054,1.223-0.085c0.643-0.103,1.284-0.205,1.927-0.307
			c-1.219,0.193-1.442,0.232-0.671,0.116c1.44-0.214,2.879-0.444,4.302-0.757c40.245-8.841,47.504-58.084,49.87-91.957
			c3.871-55.396-1.609-111.426-8.248-166.392c-6.282-52.017-15.282-103.656-24.219-155.268c-1.393-8.04-2.759-16.085-4.011-24.149
			C680.488,51.313,667.557,59.269,668.146,63.762L668.146,63.762z"/>
	</g>
</g>
<g>
	<g>
		<path fill="#999999" d="M755.511,270.12c-0.574-7.27-1.406-14.259,0.848-21.325c1.165-3.651-3.377-2.789-5.277-1.962
			c-3.619,1.573-8.146,4.922-8.673,9.13c-1.062,8.488-0.88,17.234-1.31,25.779c-0.436,8.644-0.98,17.281-1.534,25.917
			c-1.104,17.216-1.786,34.489-2.188,51.735c-0.396,16.986-0.19,33.917,1.403,50.841c0.775,8.235,1.903,16.434,3.33,24.58
			c1.257,7.178,3.5,15.473,7.915,21.313c2.401,3.177,9.798-4.07,9.972-6.682c0.54-8.089-0.75-16.18-1.634-24.226
			c-0.918-8.353-1.999-16.641-2.559-25.034c-1.133-16.968-1.29-34.054-1.047-51.052c0.246-17.163,1.271-34.295,1.704-51.45
			c0.214-8.436,0.4-16.873,0.506-25.311c0.102-8.126,0.729-16.692-0.427-24.753c-4.606,3.086-9.213,6.173-13.819,9.26
			c2.898,5.342,3.521,11.947,5.059,17.802C748.568,277.683,755.705,272.585,755.511,270.12L755.511,270.12z"/>
	</g>
</g>
<g>
	<g>
		<path fill="#999999" d="M745.188,261.471c0.331,4.563,2.602,9.33,3.961,13.702c1.492,4.796,2.882,9.622,4.304,14.439
			c2.985,10.117,6.441,20.112,9.526,30.203c6.273,20.523,11.605,41.489,21.365,60.682c1.648,3.242,11.203-4.157,10.776-7.221
			c-2.964-21.247-9.932-41.383-16.868-61.619c-3.4-9.92-6.887-19.811-10.483-29.661c-1.687-4.619-3.707-9.125-5.607-13.659
			c-1.838-4.385-3.365-10.293-6.466-13.907C753.132,251.442,744.967,258.427,745.188,261.471L745.188,261.471z"/>
	</g>
</g>
<g>
	<g>
		<path fill="#999999" d="M761.703,374.513c0.677-4.118,1.846-8.036,3.745-11.761c1.948-3.82,5.076-6.592,7.516-10.041
			c2.397-3.393-2.596-2.366-4.103-1.512c-9.807,5.564-15.186,17.367-16.549,28.138C751.965,382.091,761.224,377.428,761.703,374.513
			L761.703,374.513z"/>
	</g>
</g>
<g>
	<g>
		<path fill="#999999" d="M787.283,246.407c0.662,20.443,5.16,40.44,9.747,60.297c2.277,9.858,5.154,19.594,7.645,29.401
			c2.287,9.011,4.477,18.924,8.691,27.233c1.908,3.761,11.219-4.733,11.313-7.58c0.318-9.609-1.846-19.692-4.185-28.99
			c-2.466-9.801-4.925-19.642-7.729-29.352c-5.498-19.035-10.324-38.189-14.324-57.596
			C797.549,235.492,787.169,242.866,787.283,246.407L787.283,246.407z"/>
	</g>
</g>
<g>
	<g>
		<path fill="#999999" d="M787.832,244.999c9.68,32.551,21.139,66.281,48.461,88.407c4.776,3.868,15.141-5.486,15.448-10.351
			c1.367-21.628-3.459-43.283-10.355-63.684c-3.354-9.918-6.849-19.833-10.641-29.592c-1.891-4.867-3.842-9.708-5.679-14.597
			c-1.794-4.777-3.522-11.076-6.751-15.035c-1.979-2.428-7.49,3.131-7.692,5.154c-0.535,5.364,0.998,10.973,1.95,16.244
			c0.957,5.298,2.519,10.546,3.857,15.758c2.713,10.566,6.129,20.957,9.005,31.482c5.689,20.823,11.067,41.823,10.507,63.593
			c5.149-3.45,10.299-6.9,15.448-10.351c-27.373-20.224-41.541-52.898-53.721-83.622
			C796.616,235.75,786.929,241.962,787.832,244.999L787.832,244.999z"/>
	</g>
</g>
<g>
	<g>
		<path fill="#999999" d="M845.126,214.103c2.193,16.954,4.706,33.89,8.296,50.611c1.778,8.289,3.402,16.631,5.361,24.878
			c1.843,7.76,3.302,15.372,7.173,22.373c1.895,3.427,10.114-4.311,10.24-6.861c0.803-16.221-5.43-32.594-9.743-48.082
			c-4.438-15.935-9.627-31.608-13.048-47.806C852.75,206.115,844.771,211.355,845.126,214.103L845.126,214.103z"/>
	</g>
</g>
<g>
	<g>
		<path fill="#999999" d="M876.843,185.302c0.413,19.939,2.196,39.92,5.381,59.603c1.512,9.341,3.007,18.696,4.69,28.007
			c0.883,4.879,2.021,9.675,3.136,14.505c0.985,4.271,1.485,9.067,3.78,12.863c1.99,3.293,10.399-4.022,10.766-6.384
			c1.395-8.971-0.479-19.255-2.075-28.147c-1.763-9.819-3.932-19.568-5.885-29.351c-3.781-18.935-7.971-37.706-9.869-56.954
			C886.414,175.864,876.773,181.953,876.843,185.302L876.843,185.302z"/>
	</g>
</g>
<g>
	<g>
		<path fill="#999999" d="M886.133,185.574c5.252-10.916,11.413-21.376,17.988-31.541c3.191-4.933,6.516-9.801,9.986-14.541
			c2.817-3.846,6.52-7.34,8.903-11.456c3.449-5.953-5.451-2.669-7.547-1.021c-9.141,7.19-15.717,18.76-21.585,28.613
			c-6.338,10.642-12.075,21.72-16.842,33.157c-0.753,1.807,1.238,2.099,2.482,1.772
			C881.938,189.923,885.018,187.892,886.133,185.574L886.133,185.574z"/>
	</g>
</g>
<g>
	<g>
		<path fill="#999999" d="M895.413,241.512c6.615-8.169,13.385-16.212,19.998-24.383c3.496-4.32,6.863-8.712,10.095-13.233
			c2.533-3.544,5.101-7.077,5.616-11.514c0.357-3.074-6.436,1.397-6.897,1.81c-7.482,6.692-13.004,15.338-19.054,23.287
			c-6.222,8.174-12.647,16.19-18.895,24.345c-1.073,1.402-3.034,5.042,0.379,4.922C889.948,246.63,893.433,243.958,895.413,241.512
			L895.413,241.512z"/>
	</g>
</g>
<g>
	<g>
		<path fill="#999999" d="M904.77,296.484c6.692-8.371,12.901-17.09,19.362-25.636c3.216-4.253,6.555-8.407,10.024-12.454
			c3.742-4.364,8.384-8.199,11.395-13.117c3.192-5.214-3.727-4.036-6.33-2.332c-10.125,6.625-17.538,17.112-24.487,26.851
			c-6.59,9.236-12.675,18.81-19.123,28.141c-0.96,1.389-0.925,3.391,1.177,3.317C899.774,301.149,902.983,298.718,904.77,296.484
			L904.77,296.484z"/>
	</g>
</g>
<g>
	<g>
		<g>
			<path fill="#999999" d="M113.112,249.464c2.616-16.041,4.6-31.636,3.079-47.931c-1.255-13.436-4.434-30.465-15.967-39.085
				c-14.388-10.754-34.093-3.858-47.965,4.494C38.432,175.266,28,187.746,21.627,202.498c-11.174,25.87-8.854,57.671,1.257,83.441
				c6.528,16.639,20.795,43.25,42.726,38.789c15.088-3.07,24.143-18.753,29.619-31.727c1.214-2.877-0.789-4.993-3.723-4.437
				c-3.43,0.651-6.611,3.456-7.922,6.647c-2.402,5.851-5.433,11.598-8.996,15.561c-0.183,0.204-1.649,1.644-0.336,0.392
				c-0.414,0.395-0.851,0.764-1.288,1.132c-1.456,1.226,0.561-0.209-1.5,1.018c-1.464,0.871,1.308-0.582-0.201,0.115
				c-0.431,0.2-0.877,0.364-1.323,0.528c-1.47,0.539,1.221-0.299-0.276,0.066c-0.583,0.143-1.179,0.227-1.774,0.301
				c1.048-0.131-1.24-0.098-1.697-0.149c-1.351-0.153-0.807-0.09-1.838-0.41c-1.961-0.608-3.78-1.621-5.479-2.759
				c-3.318-2.221-6.708-6.334-9.233-9.931c-7.06-10.055-11.147-22.105-13.917-33.973c-3.173-13.593-4.787-27.597-3.708-41.539
				c0.542-7.008,1.74-13.411,3.64-19.369c2.329-7.305,3.997-10.638,8.247-16.645c-1.375,1.943,1.425-1.726,1.925-2.305
				c0.523-0.607,1.073-1.191,1.622-1.775c1.887-2.007-1.738,1.608,0.267-0.292c1.182-1.119,2.436-2.158,3.712-3.167
				c0.397-0.314,2.681-1.916,0.357-0.292c0.915-0.639,1.859-1.234,2.821-1.798c0.732-0.429,1.478-0.831,2.227-1.23
				c-2.151,1.147,0.398-0.163,0.718-0.309c1.789-0.821,3.633-1.505,5.491-2.149c2.946-1.021,6.913-1.582,9.846-1.462
				c5.54,0.227,9.832,2.873,13.479,7.791c3.758,5.068,5.477,11.854,6.689,18.64c2.71,15.172,1.889,31.462,2.083,46.291
				c0.041,3.067-0.008,6.137-0.041,9.204c-0.053,4.859,4.447,5.309,8.196,3.806C107.854,258.676,112.295,254.471,113.112,249.464
				L113.112,249.464z"/>
		</g>
	</g>
	<g>
		<g>
			<path fill="#999999" d="M128.899,274.293c-10.523,9.487-15.946,22.875-14.509,37.009c1.267,12.462,11.639,18.43,23.13,14.137
				c7.662-2.862,14.961-9.725,19.763-16.142c5.277-7.054,8.695-15.326,6.946-24.231c-3.897-19.842-30.04-16.882-41.647-6.517
				c-2.268,2.026-8.347,11.136-1.126,11.281c4.509,0.091,8.474-1.331,12.999-0.123c4.133,1.104,7.166,2.632,9.592,6.22
				c2.046,3.025,1.395,6.912,0.083,10.038c-0.616,1.468-2.367,3.321-3.269,4.175c-2.282,2.157,0.881-0.386-1.47,1.085
				c0.528-0.33-0.056,0.061-0.578,0.17c1.231-0.257-0.702-0.048-0.954-0.072c1.022,0.098-0.809-0.352-0.926-0.402
				c-1.198-0.527-1.505-1.043-2.446-2.205c-1.906-2.354-2.789-5.63-3.407-8.535c-1.518-7.131,0.245-15.085,5.337-20.341
				c1.56-1.61,3.57-5.175,1.777-7.311C135.889,269.779,130.856,272.529,128.899,274.293L128.899,274.293z"/>
		</g>
	</g>
	<g>
		<g>
			<path fill="#999999" d="M174.109,274.705c0.064,14.5,2.242,28.753,8.469,41.954c4.13,8.756,16.225-3.326,17.408-8.762
				c2.856-13.121,9.159-25.071,21.844-29.137c-2.894-0.721-5.788-1.442-8.682-2.164c1.814,4.337,1.708,6.777-0.143,10.968
				c-1.702,3.854-2.919,8.52,0.264,11.782c3.135,3.214,8.475-0.973,10.694-3.248c8.728-8.951,13.358-21.012,7.502-32.648
				c-1.295-2.574-6.061-1.28-7.9-0.596c-22.105,8.218-37.48,29.115-41.079,52.068c5.566-3.395,11.133-6.789,16.699-10.184
				c-6.494-11.451-9.407-24.417-10.324-37.459C188.395,260.614,174.085,269.313,174.109,274.705L174.109,274.705z"/>
		</g>
	</g>
	<g>
		<g>
			<path fill="#999999" d="M220.569,193.909c1.449-0.954-1.024,0.376-1.409,0.462c0.342-0.077-1.995-0.394-0.898,0.039
				c-1.221-0.481-0.368-0.338,0.22,0.38c0.507,0.62,1.019,1.157,1.584,1.729c3.219,3.258,4.467,6.536,5.981,10.134
				c5.215,12.397,9.426,25.025,12.917,38.016c3.801,14.148,7.266,28.399,10.088,42.777c1.117,5.688,2.123,11.402,2.937,17.144
				c0.607,4.284-0.129,10.232,4.135,12.671c5.509,3.15,13.746-4.261,16.297-8.363c3.442-5.537,2.263-11.465,1.375-17.527
				c-0.925-6.313-2.136-12.585-3.427-18.833c-3.241-15.681-7.174-31.21-12.198-46.417c-4.256-12.883-8.797-26.697-17.051-37.642
				c-2.803-3.717-6.249-7.307-11.083-7.795c-5.723-0.578-11.294,2.463-14.917,6.73C210.633,192.694,214.452,197.938,220.569,193.909
				L220.569,193.909z"/>
		</g>
	</g>
	<g>
		<g>
			<path fill="#999999" d="M204.949,259.581c6.111-5.417,11.237-9.24,17.989-12.486c8.986-4.32,18.424-7.83,27.837-11.091
				c9.223-3.196,18.593-5.935,27.842-9.05c8.891-2.994,19.781-5.608,25.844-13.317c1.992-2.533,6.101-9.203,1.062-11.248
				c-4.407-1.79-9.21,0.534-13.307,2.123c-4.185,1.623-8.431,3.089-12.673,4.557c-10.275,3.555-20.49,7.342-30.571,11.416
				c-10.668,4.312-21.116,9.185-30.846,15.358c-8.613,5.464-17.778,12.146-22.255,21.559
				C192.719,264.027,202.332,261.9,204.949,259.581L204.949,259.581z"/>
		</g>
	</g>
	<g>
		<g>
			<path fill="#999999" d="M294.763,248.436c-3.411,19.984-2.903,39.611-1.557,59.749c0.282,4.224,6.634,3.166,8.961,2.233
				c4.31-1.727,10.96-6.9,10.857-12.208c-0.217-11.19,4.261-21.237,10.389-30.273c0.612-0.903,1.7-2.307,3.351-4.223
				c0.723-0.839,1.48-1.651,2.234-2.463c1.051-1.074,0.979-1.015-0.216,0.177c0.471-0.438,0.953-0.863,1.445-1.276
				c0.604-0.521,3.147-2.195,0.067-0.124c2.36-1.586,4.207-3.112,6.141-5.214c-2.946,3.201,0.173,0.011,1.146-1.152
				c-0.934,1.116-2.235,2.188-3.67,2.56c3.525-0.912,8.236-4.38,7.596-8.559c-0.908-5.932-7.67-5.748-12.063-3.723
				c-7.505,3.458-13.853,9.888-18.829,16.361c-10.518,13.683-18.372,30.315-17.409,47.884c6.572-3.983,13.143-7.968,19.715-11.951
				c-1.835-17.785-3.788-35.951-3.1-53.843c0.157-4.091-3.806-4.402-6.852-3.182C299.136,240.744,295.478,244.246,294.763,248.436
				L294.763,248.436z"/>
		</g>
	</g>
	<g>
		<g>
			<path fill="#999999" d="M357.462,254.487c-14.577,10.907-22.406,30.568-13.718,47.506c3.223,6.283,8.714,10.901,15.723,12.238
				c10.108,1.928,19.394-3.801,27.18-9.493c15.788-11.543,28.343-35.258,19.487-54.514c-3.709-8.064-9.77-13.229-18.633-14.665
				c-13.258-2.148-26.37,6.236-33.644,16.532c-3.466,4.906-1.275,9.639,4.658,9.125c-2.348,0.204,4.826-0.258,3.661-0.037
				c3.455-0.98,4.17-1.209,2.147-0.687c0.695-0.185,1.395-0.344,2.101-0.479c0.692-0.165,1.39-0.297,2.094-0.396
				c-1.307,0.035-1.308,0.041,0,0.017c0.488-0.007,4.127,0.597,2.029,0.062c5.552,1.416,7.834,3.46,10.841,8.287
				c0.626,1.006,1.578,3.819,2.101,6.144c0.644,2.867,0.626,4.675,0.528,6.905c-0.266,6.02-2.326,9.773-6.084,13.997
				c-2.42,2.721,1.619-0.744-1.068,1c-1.167,0.655-1.308,0.758-0.423,0.308c-0.621,0.281-1.253,0.531-1.898,0.752
				c1.874-0.69-2.42,0.18-0.897,0.115c-0.479,0.021-2.608-0.143-2.372-0.087c-4.694-1.104-7.803-4.487-10.19-8.511
				c-4.636-7.814-3.898-20.592,2.71-26.575c2.082-1.885,6.119-6.391,3.571-9.426C364.796,249.544,359.712,252.804,357.462,254.487
				L357.462,254.487z"/>
		</g>
	</g>
	<g>
		<g>
			<path fill="#999999" d="M426.659,182.093c-0.924,22.1-0.663,44.224-0.914,66.337c-0.13,11.449-0.396,22.908-0.761,34.351
				c-0.34,10.656-2.258,22.174-0.564,32.756c0.609,3.802,5.816,3.012,8.22,2.049c3.942-1.58,8.023-5.052,9.45-9.168
				c-8.24,8.108-9.815,10.204-4.728,6.287c1.438-1.192,2.656-2.576,3.657-4.15c1.854-2.985,2.41-6.62,3.042-10.014
				c1.174-6.315,1.917-12.521,2.256-18.934c0.632-11.939,0.606-23.837,0.191-35.781c-0.819-23.539-2.503-47.043-2.745-70.601
				C443.657,164.97,426.949,175.169,426.659,182.093L426.659,182.093z"/>
		</g>
	</g>
	<g>
		<g>
			<path fill="#999999" d="M458.454,270.295c-5.627,14.895-2.702,31.75,10.41,41.622c13.331,10.037,30.167,8.661,42.792-1.977
				c12.881-10.853,22.447-32.701,10.412-47.428c-4.889-5.981-11.538-9.768-19.194-10.609c-4.549-0.5-9.054,0.163-13.429,1.395
				c-2.366,0.667-4.806,1.322-7.023,2.406c-2.84,1.388-4.205,2.25-6.786,4.104c2.914-2.094,0.043-0.249-0.5,0.101
				c-3.787,2.439-7.87,6.313-8.395,11.075c-0.437,3.965,3.125,5.894,6.671,5.032c2.633-0.64-0.03-0.199,1.365-0.138
				c1.17,0.026,2.338-0.037,3.502-0.188c-1.278,0.096-1.314,0.126-0.109,0.093c2.454-0.014,4.886,0.481,7.323,0.689
				c5.788,0.492,9.025,1.109,13.772,3.333c3.505,1.643,6.006,5.298,6.833,9.486c0.354,1.795,0.108,4.342-0.477,6.411
				c-0.216,0.764-1.251,3.454-1.177,3.31c-0.343,0.633-0.711,1.25-1.104,1.854c1.143-1.831-1.716,1.624,0.382-0.377
				c-0.479,0.438-0.977,0.854-1.492,1.247c1.088-0.78,1.094-0.827,0.019-0.141c2.375-1.43-2.355,0.761-0.369,0.187
				c-2.521,0.729-3.598,0.675-6.007,0.502c-4.755-0.342-9.605-2.646-13.297-5.587c-8.597-6.849-13.604-18.122-10.546-28.978
				c0.942-3.345-0.565-5.889-4.34-5.172C463.775,263.289,459.863,266.566,458.454,270.295L458.454,270.295z"/>
		</g>
	</g>
	<g>
		<g>
			<path fill="#999999" d="M589.608,259.39c-3.118-3.696-7.896-7.059-12.045-9.53c-6.356-3.785-14.436-1.33-21.012,0.705
				c-13.852,4.286-29.895,19.175-26.265,35.035c1.644,7.185,9.43,13.104,15.729,15.98c7.087,3.235,15.257,2.658,22.22-0.517
				c13.658-6.227,28.633-22.358,28.695-38.239c-8.041,4.047-16.083,8.095-24.124,12.142c4.185,14.546,7.188,29.813,5.454,44.989
				c-0.698,6.114-1.514,9.264-4.127,15.055c1.152-2.553-0.666,0.87-0.975,1.346c-2.036,3.142,0.773-0.867-0.613,0.836
				c-0.646,0.794-3.561,3.739-0.194,0.461c-0.982,0.957-2.054,1.816-3.144,2.646c3.87-2.946,0.788-0.66-0.21-0.081
				c-2.159,1.252,3.258-1.421-0.311,0.085c-0.817,0.345-4.437,1.408-0.56,0.313c-1.311,0.371-2.654,0.61-3.998,0.82
				c-3.32,0.52,0.921,0.061-1.138,0.146c-1.162,0.048-2.327,0.007-3.488-0.045c-2.87-0.127-5.691-0.382-8.524-0.87
				c-0.663-0.12-1.324-0.252-1.982-0.396c1.029,0.236,0.921,0.199-0.323-0.111c-1.39-0.361-2.758-0.801-4.122-1.248
				c-3.307-1.084-6.509-2.468-9.65-3.953c-3.076-1.454-6.049-3.124-8.965-4.872c-1.572-0.943-3.239-1.759-4.84-2.655
				c-4.352-2.438-10.344,0.993-14.046,2.969c2.101-0.847,4.202-1.692,6.304-2.538c-1.096,0.276-2.191,0.553-3.287,0.829
				c1.358,0.091,2.716,0.183,4.074,0.274c-0.504-0.153-1.008-0.307-1.513-0.461c-6.439-1.961-20.561,7.828-15.43,15.076
				c0.27,0.382,0.54,0.764,0.811,1.146c-0.294-1.161-0.589-2.322-0.883-3.483c-0.044,0.337-0.088,0.673-0.131,1.01
				c-1.819,3.947-0.774,7.376,2.565,9.758c24,17.117,58.577,21.086,81.321-0.347c24.987-23.546,23.616-60.394,15.922-91.245
				c-1.228-4.924-7.385-4.131-10.908-2.719c-5.515,2.21-12.98,8.292-13.216,14.861c-0.058,1.6-0.329,3.13-0.583,4.707
				c-0.491,3.054,0.646-1.849-0.337,1.249c-0.321,1.015-0.752,1.992-1.179,2.966c0.954-2.177-0.643,0.99-0.758,1.179
				c-1.863,3.05,1.568-1.774-0.726,1.004c-2.264,2.739,1.959-1.546-0.81,0.663c2.865-2.286-1.942,0.644,0.921-0.661
				c-1.221,0.455-1.321,0.507-0.301,0.153c-2.296,0.578,0.664,0.216-1.721,0.14c-1.797-0.057-3.192-1.043-4.497-2.194
				c-3.521-3.105-5.936-7.237-7.091-11.511c-0.163-1.146-0.225-1.139-0.183,0.02c-0.042-0.806,0.092-1.608,0.226-2.398
				c-0.548,3.245,1.228-1.405-0.774,2.196c1.439-2.59-2.281,2.654-0.248,0.406c-3.151,3.486-1.308,1.322-0.348,0.539
				c-3.508,2.864-1.247,0.934-0.219,0.333c-4.583,2.678,4.584-1.341,0.962-0.339c5.007-1.385,7.991-1.73,11.907-2.475
				c4.126-0.785,7.189,0.309,10.672,2.59C582.225,274.159,593.585,264.105,589.608,259.39L589.608,259.39z"/>
		</g>
	</g>
	<g>
		<g>
			<path fill="#999999" d="M624.189,250.443c-0.516,10.251-0.557,20.315,0.05,30.563c0.297,5.017,0.721,10.024,1.221,15.025
				c0.446,4.466,0.747,9.947,3.668,13.527c2.517,3.086,7.81,0.933,10.45-0.669c3.984-2.417,7.03-6.031,8.039-10.606
				c0.925-4.192,0.033-9.11-0.611-13.345c-0.74-4.866-1.318-9.756-1.844-14.65c-1.033-9.622-2.021-19.241-3.055-28.864
				c-0.407-3.791-5.882-2.909-8.103-2.019C629.856,241.067,624.436,245.545,624.189,250.443L624.189,250.443z"/>
		</g>
	</g>
	<g>
		<g>
			<path fill="#999999" d="M591.286,194.769c1.626,10.845,4.985,20.422,10.205,30.055c2.484,4.584,5.454,8.886,8.695,12.962
				c3.517,4.423,7.925,7.958,11.484,12.3c3.172,3.868,10.465,0.035,13.13-2.493c0.862-0.815,1.714-1.643,2.553-2.483
				c-3.044,3.024-1.525,1.508-0.841,0.851c1.553-1.491,3.132-2.989,4.562-4.603c2.344-2.646,4.741-6.097,6.491-9.211
				c4.015-7.14,7.451-14.666,10.856-22.111c3.183-6.957,6.157-13.982,8.857-21.141c2.282-6.05,8.535-17.567,0.978-21.424
				c0.79,0.942,1.58,1.883,2.37,2.825c-0.427-1.931-1.582-2.579-3.132-3.338c0.67,0.799,1.341,1.598,2.011,2.396
				c-0.586-1.322-0.948-2.437-2.384-3.034c0.621,0.74,1.242,1.48,1.863,2.221c-1.67-8.427-16.815,2.41-16.501,8.82
				c0.218,4.458,4.727,3.599,7.613,1.898c1.577-0.93-1.542,0.671-0.759,0.365c-5.27,1.513-7.35-0.1-6.238-4.839
				c-1.884,6.424,3.014-6.376-0.135,0.362c0.398-0.853,5.182-5.837,3.329-4.445c-2.051,1.541-3.563,3.593-4.922,5.731
				c2.329-2.264,4.657-4.527,6.986-6.791c-8.936,4.96-11.188,13.485-14.557,22.175c-2.589,6.679-5.327,13.312-8.084,19.922
				c-2.762,6.621-5.669,13.186-8.815,19.634c-0.611,1.236-0.514,1.046,0.293-0.57c-0.718,1.425-1.497,2.83-2.074,4.32
				c-0.504,1.3-1.039,2.588-1.593,3.868c-0.38,0.876-0.709,1.735-1.009,2.641c-0.146,0.438-0.308,0.87-0.473,1.301
				c-0.623,1.629,1.311-2.33,0.423-0.878c5.21-2.674,10.42-5.347,15.63-8.021c-8.423-4.054-14.934-13.575-19.82-21.277
				c-5.215-8.221-9.207-17.677-12.318-26.883C603.429,178.373,590.405,188.897,591.286,194.769L591.286,194.769z"/>
		</g>
	</g>
</g>
<g>
	<path fill="#999999" stroke="#999999" stroke-width="2" stroke-miterlimit="10" d="M639.349,344.563
		c-10.021-2.657-15.718,6.029-17.951,14.604c-3.402,13.05-1.218,28.486,4.44,40.591c5.774,12.348,17.506,19.83,30.537,22.666
		c2.485,0.54,5.185-7.029,3.049-7.604c-11.375-3.07-20.436-9.391-26.969-19.204c-6.408-9.626-8.756-22.414-7.75-33.81
		c0.293-3.315,0.767-6.807,3.814-8.64c2.771-1.669,6.39-0.676,9.137,0.466c8.7,3.611,14.491,11.893,21.277,17.992
		c1.988,1.783,3.885-4.577,3.253-6.045C658.159,356.193,649.471,347.247,639.349,344.563z"/>
	<path fill="#999999" stroke="#999999" stroke-width="2" stroke-miterlimit="10" d="M666.244,335.167
		c-2.469-3.276-6.425-5.354-10.467-5.744c-5.938-0.571-11.094,2.499-15.844,5.75c-0.651,0.445-2.452,4.519-0.894,4.195
		c4.492-0.934,9.744-0.932,14.126,0.582c3.938,1.36,6.688,4.418,8.781,7.914c4.706,7.855,4.91,18.563,3.667,27.12
		c-0.372,2.561-0.553,3.324-1.304,5.909c-0.384,1.315-1.049,2.941-1.72,4.176c-2.073,3.829-5.622,7.216-9.686,8.835
		c-7.702,3.067-16.339-0.3-22.001-5.831c-2.961-2.894-5.312-6.533-6.396-10.544c-0.491-1.816-0.554-3.677-0.346-5.015
		c-0.057,0.363,0.352-0.86,0.199-0.608c0.177-0.326,0.618-0.999,1.13-1.559c1.53-1.683,2.603-4.152,2.584-6.448
		c-0.017-1.879-1.33-2.464-2.646-1.06c-12.941,13.828-5.51,37.113,12.323,42.342c9.921,2.909,18.574-2.552,24.582-10.109
		c7.029-8.84,9.651-20.581,10.361-31.61C673.308,353.988,672.134,342.979,666.244,335.167z"/>
	<path fill="#999999" stroke="#999999" stroke-width="2" stroke-miterlimit="10" d="M645.284,366.361
		c-0.31,0.162-0.602,0.358-0.874,0.584c-0.974,0.183-1.914,0.796-2.616,1.422c-0.792,0.708-1.456,1.65-1.96,2.7
		c-1.496,1.462-2.452,3.631-2.711,5.545c-0.167,1.261-0.005,2.391,0.443,3.409c-0.001,0.123-0.009,0.248-0.007,0.371
		c0.044,1.641,0.557,3.595,2.274,4.209c0.99,0.353,1.946,0.26,2.833-0.088c0.337,0.107,0.686,0.192,1.044,0.231
		c2.014,0.216,3.352-1.247,4.216-2.947c1.477-1.382,2.342-4.41,1.932-5.955c-0.124-0.469-0.322-0.999-0.576-1.545
		c0-0.077,0-0.156-0.007-0.224c-0.197-2.016-0.508-4.254-1.824-5.814c-0.106-0.298-0.207-0.587-0.289-0.866
		C646.809,366.214,646.421,365.774,645.284,366.361z"/>
</g>
</svg>
