<?xml version="1.0" encoding="utf-8"?>
<!-- Generator: Adobe Illustrator 16.0.0, SVG Export Plug-In . SVG Version: 6.00 Build 0)  -->
<!DOCTYPE svg PUBLIC "-//W3C//DTD SVG 1.1//EN" "http://www.w3.org/Graphics/SVG/1.1/DTD/svg11.dtd">
<svg version="1.1" id="Layer_1" xmlns="http://www.w3.org/2000/svg" xmlns:xlink="http://www.w3.org/1999/xlink" x="0px" y="0px"
	 width="960px" height="560px" viewBox="0 0 960 560" enable-background="new 0 0 960 560" xml:space="preserve">
<g>
	<g>
		<path d="M676.146,63.762c6.147,46.85,14.582,93.372,21.278,140.143c8.132,56.797,16.065,113.943,16.536,171.42
			c0.188,22.721-1.02,45.864-6.255,68.047c-1.07,4.532-2.485,8.984-4.104,13.351c-1.753,4.73-2.531,6.463-4.706,10.425
			c-0.88,1.602-1.838,3.159-2.851,4.68c-1.077,1.618,0.871-1.093-0.653,0.896c-0.604,0.788-1.24,1.552-1.893,2.303
			c-1.839,2.121,1.109-1.09-0.387,0.424c-0.564,0.569-1.152,1.113-1.749,1.647c-1.273,1.141,2.103-1.738,0.798-0.666
			c-0.298,0.245-0.604,0.479-0.91,0.715c-2.6,1.998,1.405-0.827-0.283,0.239c-0.63,0.397-1.281,0.762-1.938,1.113
			c3.245-1.734,0.696-0.384-0.12-0.034c-0.339,0.145-0.684,0.274-1.026,0.406c-1.427,0.547,2.154-0.729,0.708-0.258
			c-0.818,0.268-1.655,0.479-2.495,0.672c-0.364,0.084-0.732,0.153-1.102,0.224c-1.426,0.271,1.833-0.265,0.395-0.065
			c-0.759,0.104-1.521,0.166-2.287,0.215c-1.776,0.112-3.561,0.137-5.341,0.046c-0.871-0.045-1.737-0.131-2.604-0.229
			c1.616,0.183-1.148-0.206-1.59-0.286c-2.071-0.378-4.111-0.914-6.125-1.521c-4.458-1.348-8.748-3.221-12.902-5.313
			c-25.983-13.083-47.697-35.172-67.449-56.041c-6.847-7.234-13.121-16.262-21.031-22.318c-0.229,1.572-0.458,3.146-0.688,4.719
			c0.376-0.871,0.819-1.708,1.328-2.511c-1.102,1.636-2.543,2.896-4.328,3.784c0.943-0.446,2.224-0.578,3.237-0.81
			c4.168-0.948,7.937-2.407,11.727-4.376c2.612-1.356,5.683-4.081,6.623-6.973c1.195-3.678-3.38-2.683-5.242-1.948
			c-3.616,1.424-7.786,0.791-11.498,2.087c-7.098,2.479-12.895,7.398-17.527,13.232c-1.354,1.705-3.423,4.433-2.111,6.721
			c2.578,4.503,6.604,8.313,10.104,12.104c3.623,3.921,7.3,7.793,11.016,11.627c6.418,6.621,13.005,13.079,19.776,19.339
			c10.903,10.077,22.41,19.507,34.813,27.689c8.653,5.71,17.931,10.771,27.895,13.771c4.152,1.25,8.443,1.996,12.765,2.334
			c1.697,0.134,3.403,0.14,5.104,0.054c0.408-0.021,0.815-0.055,1.224-0.085c0.643-0.104,1.283-0.205,1.927-0.308
			c-1.219,0.193-1.442,0.232-0.671,0.116c1.439-0.214,2.879-0.444,4.302-0.757c40.245-8.841,47.504-58.084,49.87-91.957
			c3.871-55.396-1.609-111.426-8.248-166.392c-6.282-52.018-15.282-103.656-24.219-155.269c-1.394-8.04-2.76-16.085-4.012-24.148
			C688.488,51.313,675.557,59.269,676.146,63.762L676.146,63.762z"/>
	</g>
</g>
<g>
	<g>
		<path d="M763.511,270.12c-0.574-7.271-1.406-14.26,0.849-21.325c1.165-3.651-3.377-2.789-5.277-1.962
			c-3.619,1.572-8.146,4.922-8.673,9.13c-1.063,8.488-0.88,17.233-1.311,25.779c-0.436,8.644-0.979,17.28-1.533,25.916
			c-1.104,17.217-1.786,34.489-2.188,51.735c-0.396,16.986-0.189,33.917,1.403,50.841c0.774,8.235,1.902,16.435,3.33,24.58
			c1.257,7.178,3.5,15.473,7.915,21.313c2.4,3.177,9.798-4.07,9.972-6.683c0.54-8.089-0.75-16.18-1.634-24.226
			c-0.918-8.354-1.999-16.642-2.56-25.034c-1.133-16.968-1.29-34.054-1.047-51.052c0.246-17.163,1.271-34.295,1.704-51.45
			c0.214-8.436,0.4-16.873,0.506-25.311c0.103-8.126,0.729-16.692-0.427-24.753c-4.606,3.086-9.213,6.173-13.819,9.26
			c2.898,5.342,3.521,11.946,5.06,17.802C756.568,277.683,763.705,272.585,763.511,270.12L763.511,270.12z"/>
	</g>
</g>
<g>
	<g>
		<path d="M753.188,261.471c0.33,4.563,2.602,9.33,3.961,13.702c1.491,4.796,2.882,9.622,4.304,14.438
			c2.985,10.117,6.44,20.112,9.526,30.203c6.272,20.523,11.604,41.489,21.364,60.682c1.648,3.242,11.203-4.156,10.776-7.221
			c-2.964-21.247-9.932-41.383-16.868-61.619c-3.4-9.92-6.887-19.811-10.483-29.66c-1.687-4.619-3.706-9.125-5.606-13.659
			c-1.838-4.385-3.365-10.293-6.466-13.907C761.132,251.442,752.967,258.427,753.188,261.471L753.188,261.471z"/>
	</g>
</g>
<g>
	<g>
		<path d="M769.703,374.513c0.677-4.118,1.846-8.036,3.745-11.761c1.947-3.82,5.076-6.593,7.516-10.041
			c2.397-3.394-2.596-2.366-4.103-1.513c-9.808,5.564-15.187,17.367-16.55,28.139C759.965,382.091,769.224,377.428,769.703,374.513
			L769.703,374.513z"/>
	</g>
</g>
<g>
	<g>
		<path d="M795.283,246.406c0.662,20.443,5.16,40.44,9.747,60.297c2.276,9.858,5.153,19.595,7.645,29.401
			c2.287,9.011,4.478,18.924,8.691,27.233c1.908,3.761,11.219-4.733,11.313-7.58c0.318-9.609-1.846-19.692-4.185-28.99
			c-2.466-9.801-4.925-19.642-7.729-29.352c-5.498-19.035-10.323-38.189-14.323-57.597
			C805.549,235.492,795.169,242.866,795.283,246.406L795.283,246.406z"/>
	</g>
</g>
<g>
	<g>
		<path d="M795.832,244.999c9.68,32.551,21.139,66.28,48.461,88.406c4.776,3.868,15.141-5.485,15.448-10.351
			c1.367-21.628-3.459-43.283-10.355-63.684c-3.354-9.918-6.849-19.833-10.641-29.593c-1.891-4.866-3.842-9.708-5.679-14.597
			c-1.794-4.777-3.522-11.076-6.751-15.035c-1.979-2.428-7.49,3.131-7.692,5.154c-0.535,5.364,0.998,10.973,1.95,16.244
			c0.957,5.298,2.519,10.546,3.856,15.758c2.713,10.566,6.129,20.957,9.005,31.482c5.689,20.822,11.067,41.822,10.508,63.593
			c5.148-3.45,10.299-6.9,15.447-10.352c-27.373-20.224-41.541-52.897-53.721-83.622
			C804.616,235.75,794.929,241.962,795.832,244.999L795.832,244.999z"/>
	</g>
</g>
<g>
	<g>
		<path d="M856.843,185.302c0.413,19.939,2.196,39.92,5.381,59.603c1.513,9.342,3.008,18.696,4.69,28.008
			c0.883,4.879,2.021,9.675,3.136,14.505c0.985,4.271,1.485,9.066,3.78,12.862c1.99,3.293,10.399-4.021,10.766-6.384
			c1.396-8.971-0.479-19.255-2.075-28.146c-1.763-9.819-3.932-19.568-5.885-29.352c-3.781-18.935-7.971-37.706-9.869-56.954
			C866.414,175.864,856.773,181.953,856.843,185.302L856.843,185.302z"/>
	</g>
</g>
<g>
	<g>
		<path d="M866.133,185.574c5.252-10.916,11.413-21.377,17.988-31.541c3.19-4.934,6.516-9.802,9.986-14.541
			c2.816-3.847,6.52-7.341,8.902-11.456c3.449-5.953-5.451-2.669-7.547-1.021c-9.141,7.19-15.717,18.76-21.585,28.613
			c-6.338,10.642-12.075,21.72-16.842,33.157c-0.753,1.807,1.238,2.099,2.481,1.771
			C861.938,189.923,865.018,187.892,866.133,185.574L866.133,185.574z"/>
	</g>
</g>
<g>
	<g>
		<path d="M875.413,241.512c6.615-8.169,13.385-16.212,19.998-24.383c3.496-4.32,6.863-8.712,10.095-13.233
			c2.533-3.544,5.102-7.077,5.616-11.514c0.357-3.074-6.436,1.396-6.897,1.81c-7.481,6.692-13.004,15.338-19.054,23.287
			c-6.222,8.174-12.646,16.19-18.895,24.345c-1.073,1.402-3.034,5.043,0.379,4.923C869.948,246.63,873.433,243.958,875.413,241.512
			L875.413,241.512z"/>
	</g>
</g>
<g>
	<g>
		<path d="M884.771,296.484c6.691-8.371,12.9-17.09,19.361-25.636c3.216-4.253,6.555-8.407,10.024-12.454
			c3.742-4.364,8.384-8.199,11.395-13.117c3.192-5.214-3.727-4.035-6.33-2.332c-10.125,6.625-17.538,17.112-24.486,26.852
			c-6.591,9.236-12.676,18.81-19.123,28.141c-0.96,1.389-0.925,3.391,1.177,3.317C879.774,301.149,882.983,298.718,884.771,296.484
			L884.771,296.484z"/>
	</g>
</g>
<g>
	<g>
		<g>
			<path d="M121.112,249.464c2.616-16.041,4.6-31.636,3.079-47.931c-1.255-13.437-4.434-30.466-15.967-39.086
				c-14.388-10.754-34.093-3.857-47.965,4.494C46.432,175.266,36,187.746,29.627,202.498c-11.174,25.87-8.854,57.671,1.257,83.44
				c6.528,16.639,20.795,43.25,42.726,38.789c15.088-3.07,24.143-18.753,29.619-31.727c1.214-2.877-0.789-4.993-3.723-4.438
				c-3.43,0.651-6.611,3.456-7.922,6.647c-2.402,5.851-5.433,11.598-8.996,15.561c-0.183,0.204-1.649,1.645-0.336,0.392
				c-0.414,0.396-0.851,0.765-1.288,1.133c-1.456,1.226,0.561-0.209-1.5,1.018c-1.464,0.871,1.308-0.582-0.201,0.115
				c-0.431,0.2-0.877,0.364-1.323,0.527c-1.47,0.539,1.221-0.299-0.276,0.066c-0.583,0.144-1.179,0.228-1.774,0.301
				c1.048-0.131-1.24-0.098-1.697-0.148c-1.351-0.153-0.807-0.09-1.838-0.41c-1.961-0.608-3.78-1.621-5.479-2.759
				c-3.318-2.222-6.708-6.334-9.233-9.932c-7.06-10.055-11.147-22.104-13.917-33.973c-3.173-13.593-4.787-27.597-3.708-41.539
				c0.542-7.008,1.74-13.411,3.64-19.369c2.329-7.305,3.997-10.638,8.247-16.645c-1.375,1.943,1.425-1.727,1.925-2.305
				c0.523-0.607,1.073-1.191,1.622-1.775c1.887-2.007-1.738,1.608,0.267-0.292c1.182-1.119,2.436-2.158,3.712-3.167
				c0.397-0.314,2.681-1.916,0.357-0.292c0.915-0.639,1.859-1.234,2.821-1.798c0.732-0.429,1.478-0.831,2.227-1.23
				c-2.151,1.147,0.398-0.163,0.718-0.309c1.789-0.821,3.633-1.505,5.491-2.149c2.946-1.021,6.913-1.582,9.846-1.462
				c5.54,0.228,9.832,2.873,13.479,7.791c3.758,5.068,5.477,11.854,6.689,18.641c2.71,15.172,1.889,31.462,2.083,46.291
				c0.041,3.066-0.008,6.137-0.041,9.203c-0.053,4.859,4.447,5.31,8.196,3.807C115.854,258.676,120.295,254.471,121.112,249.464
				L121.112,249.464z"/>
		</g>
	</g>
	<g>
		<g>
			<path d="M136.899,274.293c-10.523,9.486-15.946,22.875-14.509,37.009c1.267,12.462,11.639,18.43,23.13,14.137
				c7.662-2.862,14.961-9.725,19.763-16.142c5.277-7.055,8.695-15.326,6.946-24.231c-3.897-19.842-30.04-16.882-41.647-6.517
				c-2.268,2.026-8.347,11.136-1.126,11.281c4.509,0.091,8.474-1.331,12.999-0.123c4.133,1.104,7.166,2.632,9.592,6.22
				c2.046,3.024,1.395,6.912,0.083,10.038c-0.616,1.468-2.367,3.32-3.269,4.175c-2.282,2.157,0.881-0.386-1.47,1.085
				c0.528-0.33-0.056,0.061-0.578,0.17c1.231-0.257-0.702-0.048-0.954-0.072c1.022,0.099-0.809-0.352-0.926-0.401
				c-1.198-0.527-1.505-1.043-2.446-2.205c-1.906-2.354-2.789-5.63-3.407-8.535c-1.518-7.131,0.245-15.085,5.337-20.341
				c1.56-1.61,3.57-5.175,1.777-7.312C143.889,269.779,138.856,272.529,136.899,274.293L136.899,274.293z"/>
		</g>
	</g>
	<g>
		<g>
			<path d="M182.109,274.705c0.064,14.5,2.242,28.752,8.469,41.953c4.13,8.756,16.225-3.326,17.408-8.762
				c2.856-13.121,9.159-25.07,21.844-29.137c-2.894-0.721-5.788-1.442-8.682-2.164c1.814,4.337,1.708,6.777-0.143,10.968
				c-1.702,3.854-2.919,8.521,0.264,11.782c3.135,3.214,8.475-0.974,10.694-3.248c8.728-8.951,13.358-21.012,7.502-32.647
				c-1.295-2.574-6.061-1.28-7.9-0.597c-22.105,8.218-37.48,29.115-41.079,52.068c5.566-3.396,11.133-6.789,16.699-10.185
				c-6.494-11.45-9.407-24.417-10.324-37.459C196.395,260.614,182.085,269.313,182.109,274.705L182.109,274.705z"/>
		</g>
	</g>
	<g>
		<g>
			<path d="M228.569,193.909c1.449-0.954-1.024,0.376-1.409,0.462c0.342-0.077-1.995-0.395-0.898,0.039
				c-1.221-0.481-0.368-0.339,0.22,0.38c0.507,0.62,1.019,1.156,1.584,1.729c3.219,3.258,4.467,6.536,5.981,10.134
				c5.215,12.397,9.426,25.025,12.917,38.017c3.801,14.147,7.266,28.398,10.088,42.776c1.117,5.688,2.123,11.402,2.937,17.145
				c0.607,4.283-0.129,10.231,4.135,12.671c5.509,3.149,13.746-4.261,16.297-8.363c3.442-5.537,2.263-11.465,1.375-17.526
				c-0.925-6.313-2.136-12.585-3.427-18.833c-3.241-15.682-7.174-31.21-12.198-46.417c-4.256-12.884-8.797-26.697-17.051-37.643
				c-2.803-3.717-6.249-7.307-11.083-7.795c-5.723-0.578-11.294,2.463-14.917,6.73C218.633,192.694,222.452,197.938,228.569,193.909
				L228.569,193.909z"/>
		</g>
	</g>
	<g>
		<g>
			<path d="M212.949,259.581c6.111-5.417,11.237-9.24,17.989-12.486c8.986-4.32,18.424-7.83,27.837-11.091
				c9.223-3.196,18.593-5.936,27.842-9.05c8.891-2.994,19.781-5.608,25.844-13.317c1.992-2.533,6.101-9.203,1.062-11.248
				c-4.407-1.79-9.21,0.534-13.307,2.123c-4.185,1.623-8.431,3.089-12.673,4.557c-10.275,3.556-20.49,7.343-30.571,11.416
				c-10.668,4.313-21.116,9.186-30.846,15.358c-8.613,5.464-17.778,12.146-22.255,21.559
				C200.719,264.027,210.332,261.9,212.949,259.581L212.949,259.581z"/>
		</g>
	</g>
	<g>
		<g>
			<path d="M302.763,248.436c-3.411,19.984-2.903,39.611-1.557,59.749c0.282,4.224,6.634,3.166,8.961,2.233
				c4.31-1.728,10.96-6.9,10.857-12.208c-0.217-11.19,4.261-21.237,10.389-30.273c0.612-0.902,1.7-2.307,3.351-4.223
				c0.723-0.839,1.48-1.651,2.234-2.463c1.051-1.074,0.979-1.016-0.216,0.177c0.471-0.438,0.953-0.863,1.445-1.276
				c0.604-0.521,3.147-2.194,0.067-0.124c2.36-1.586,4.207-3.111,6.141-5.214c-2.946,3.201,0.173,0.012,1.146-1.151
				c-0.934,1.115-2.235,2.188-3.67,2.56c3.525-0.912,8.236-4.38,7.596-8.559c-0.908-5.933-7.67-5.748-12.063-3.724
				c-7.505,3.458-13.853,9.889-18.829,16.361c-10.518,13.683-18.372,30.314-17.409,47.884c6.572-3.983,13.143-7.968,19.715-11.951
				c-1.835-17.785-3.788-35.95-3.1-53.843c0.157-4.091-3.806-4.402-6.852-3.182C307.136,240.744,303.478,244.246,302.763,248.436
				L302.763,248.436z"/>
		</g>
	</g>
	<g>
		<g>
			<path d="M365.462,254.487c-14.577,10.907-22.406,30.568-13.718,47.506c3.223,6.283,8.714,10.901,15.723,12.238
				c10.108,1.928,19.394-3.801,27.18-9.493c15.788-11.543,28.343-35.258,19.487-54.514c-3.709-8.063-9.77-13.229-18.633-14.665
				c-13.258-2.147-26.37,6.236-33.644,16.532c-3.466,4.906-1.275,9.639,4.658,9.125c-2.348,0.204,4.826-0.258,3.661-0.037
				c3.455-0.979,4.17-1.209,2.147-0.687c0.695-0.186,1.395-0.345,2.101-0.479c0.692-0.165,1.39-0.297,2.094-0.396
				c-1.307,0.034-1.308,0.041,0,0.017c0.488-0.007,4.127,0.597,2.029,0.062c5.552,1.416,7.834,3.46,10.841,8.287
				c0.626,1.006,1.578,3.819,2.101,6.145c0.644,2.867,0.626,4.675,0.528,6.905c-0.266,6.02-2.326,9.772-6.084,13.996
				c-2.42,2.722,1.619-0.743-1.068,1c-1.167,0.655-1.308,0.759-0.423,0.309c-0.621,0.281-1.253,0.531-1.898,0.752
				c1.874-0.69-2.42,0.18-0.897,0.115c-0.479,0.021-2.608-0.144-2.372-0.087c-4.694-1.104-7.803-4.487-10.19-8.512
				c-4.636-7.813-3.898-20.592,2.71-26.574c2.082-1.886,6.119-6.392,3.571-9.427C372.796,249.544,367.712,252.804,365.462,254.487
				L365.462,254.487z"/>
		</g>
	</g>
	<g>
		<g>
			<path d="M434.659,182.093c-0.924,22.1-0.663,44.224-0.914,66.337c-0.13,11.449-0.396,22.908-0.761,34.351
				c-0.341,10.656-2.259,22.174-0.564,32.756c0.609,3.803,5.816,3.013,8.22,2.05c3.942-1.58,8.023-5.053,9.45-9.168
				c-8.24,8.107-9.814,10.203-4.728,6.286c1.438-1.191,2.655-2.575,3.656-4.149c1.854-2.985,2.41-6.62,3.043-10.014
				c1.174-6.315,1.916-12.521,2.256-18.935c0.632-11.938,0.605-23.837,0.19-35.78c-0.818-23.539-2.503-47.043-2.745-70.602
				C451.657,164.97,434.949,175.169,434.659,182.093L434.659,182.093z"/>
		</g>
	</g>
	<g>
		<g>
			<path d="M466.454,270.295c-5.627,14.895-2.702,31.75,10.41,41.622c13.331,10.036,30.167,8.66,42.792-1.978
				c12.881-10.853,22.446-32.7,10.412-47.428c-4.89-5.98-11.538-9.768-19.194-10.609c-4.549-0.5-9.054,0.163-13.429,1.396
				c-2.366,0.667-4.807,1.322-7.023,2.406c-2.84,1.388-4.205,2.25-6.786,4.104c2.914-2.094,0.043-0.249-0.5,0.102
				c-3.787,2.438-7.87,6.313-8.395,11.074c-0.438,3.966,3.125,5.895,6.671,5.032c2.633-0.64-0.03-0.199,1.365-0.138
				c1.17,0.026,2.338-0.037,3.502-0.188c-1.278,0.097-1.314,0.126-0.109,0.094c2.454-0.015,4.886,0.48,7.323,0.688
				c5.788,0.492,9.024,1.109,13.771,3.333c3.505,1.644,6.006,5.298,6.833,9.486c0.354,1.795,0.108,4.342-0.477,6.411
				c-0.216,0.764-1.251,3.453-1.177,3.31c-0.344,0.633-0.711,1.25-1.104,1.854c1.144-1.831-1.716,1.624,0.382-0.377
				c-0.479,0.438-0.977,0.854-1.492,1.247c1.089-0.779,1.095-0.827,0.02-0.141c2.375-1.43-2.355,0.761-0.369,0.187
				c-2.521,0.729-3.598,0.676-6.007,0.502c-4.755-0.342-9.605-2.646-13.297-5.586c-8.597-6.85-13.604-18.122-10.546-28.979
				c0.941-3.345-0.565-5.889-4.34-5.172C471.775,263.289,467.863,266.566,466.454,270.295L466.454,270.295z"/>
		</g>
	</g>
	<g>
		<g>
			<path d="M597.608,259.39c-3.118-3.696-7.896-7.059-12.045-9.53c-6.356-3.784-14.437-1.33-21.013,0.705
				c-13.852,4.286-29.895,19.176-26.265,35.035c1.644,7.186,9.43,13.104,15.729,15.979c7.087,3.235,15.258,2.658,22.221-0.517
				c13.657-6.227,28.633-22.357,28.694-38.238c-8.041,4.047-16.083,8.095-24.124,12.142c4.186,14.546,7.188,29.813,5.454,44.988
				c-0.698,6.114-1.514,9.265-4.127,15.056c1.152-2.554-0.666,0.87-0.975,1.346c-2.036,3.142,0.772-0.867-0.613,0.836
				c-0.646,0.794-3.561,3.739-0.194,0.461c-0.981,0.957-2.054,1.816-3.144,2.646c3.87-2.946,0.788-0.66-0.21-0.081
				c-2.159,1.252,3.258-1.421-0.312,0.085c-0.816,0.345-4.437,1.408-0.56,0.313c-1.311,0.371-2.654,0.61-3.998,0.82
				c-3.32,0.52,0.921,0.061-1.138,0.146c-1.162,0.049-2.327,0.008-3.488-0.045c-2.87-0.127-5.69-0.382-8.524-0.87
				c-0.662-0.119-1.323-0.252-1.981-0.396c1.029,0.236,0.921,0.199-0.323-0.111c-1.39-0.36-2.758-0.801-4.122-1.248
				c-3.307-1.084-6.509-2.468-9.649-3.952c-3.076-1.454-6.05-3.124-8.966-4.872c-1.571-0.943-3.238-1.76-4.84-2.655
				c-4.352-2.438-10.344,0.993-14.046,2.969c2.102-0.847,4.202-1.691,6.304-2.538c-1.096,0.276-2.19,0.554-3.286,0.829
				c1.357,0.091,2.716,0.184,4.073,0.274c-0.504-0.153-1.008-0.308-1.513-0.461c-6.439-1.961-20.561,7.827-15.43,15.075
				c0.27,0.383,0.54,0.765,0.811,1.146c-0.294-1.161-0.589-2.322-0.883-3.483c-0.044,0.337-0.088,0.673-0.131,1.011
				c-1.819,3.946-0.774,7.376,2.564,9.758c24,17.117,58.577,21.086,81.321-0.348c24.987-23.546,23.616-60.394,15.922-91.244
				c-1.228-4.924-7.385-4.131-10.908-2.719c-5.515,2.21-12.979,8.292-13.216,14.86c-0.058,1.601-0.329,3.13-0.583,4.707
				c-0.491,3.054,0.646-1.849-0.337,1.249c-0.321,1.016-0.752,1.992-1.179,2.966c0.954-2.177-0.644,0.99-0.758,1.18
				c-1.863,3.05,1.567-1.774-0.727,1.004c-2.264,2.738,1.959-1.546-0.81,0.663c2.865-2.286-1.942,0.644,0.921-0.661
				c-1.221,0.455-1.321,0.507-0.301,0.152c-2.296,0.578,0.664,0.217-1.722,0.141c-1.797-0.058-3.191-1.043-4.497-2.194
				c-3.521-3.104-5.936-7.237-7.091-11.511c-0.163-1.146-0.225-1.139-0.183,0.02c-0.042-0.806,0.092-1.607,0.226-2.397
				c-0.548,3.245,1.229-1.405-0.773,2.196c1.438-2.591-2.281,2.653-0.248,0.405c-3.151,3.486-1.309,1.322-0.349,0.539
				c-3.508,2.864-1.247,0.935-0.219,0.333c-4.583,2.679,4.584-1.341,0.962-0.339c5.007-1.385,7.991-1.729,11.907-2.475
				c4.126-0.785,7.188,0.309,10.672,2.59C590.225,274.159,601.585,264.105,597.608,259.39L597.608,259.39z"/>
		</g>
	</g>
	<g>
		<g>
			<path d="M632.189,250.443c-0.517,10.251-0.558,20.315,0.05,30.563c0.297,5.017,0.721,10.023,1.221,15.024
				c0.446,4.466,0.747,9.947,3.668,13.527c2.518,3.086,7.811,0.933,10.45-0.669c3.984-2.417,7.03-6.031,8.039-10.606
				c0.925-4.191,0.033-9.109-0.611-13.345c-0.74-4.866-1.317-9.756-1.844-14.649c-1.033-9.622-2.021-19.241-3.055-28.864
				c-0.407-3.791-5.883-2.909-8.104-2.02C637.856,241.067,632.436,245.545,632.189,250.443L632.189,250.443z"/>
		</g>
	</g>
	<g>
		<g>
			<path d="M599.286,194.769c1.626,10.845,4.984,20.422,10.205,30.056c2.483,4.584,5.454,8.886,8.695,12.962
				c3.517,4.423,7.925,7.958,11.483,12.3c3.172,3.868,10.465,0.035,13.13-2.493c0.862-0.815,1.714-1.643,2.553-2.483
				c-3.044,3.024-1.524,1.509-0.841,0.852c1.554-1.491,3.132-2.989,4.563-4.604c2.344-2.646,4.741-6.097,6.491-9.211
				c4.015-7.14,7.45-14.666,10.855-22.11c3.184-6.957,6.157-13.982,8.857-21.142c2.281-6.05,8.535-17.566,0.978-21.424
				c0.79,0.942,1.58,1.883,2.37,2.825c-0.427-1.932-1.582-2.579-3.132-3.338c0.67,0.799,1.341,1.598,2.011,2.396
				c-0.586-1.322-0.948-2.437-2.384-3.034c0.621,0.74,1.242,1.48,1.863,2.222c-1.67-8.428-16.815,2.41-16.501,8.819
				c0.218,4.458,4.727,3.6,7.612,1.898c1.577-0.93-1.542,0.671-0.759,0.365c-5.27,1.513-7.35-0.101-6.238-4.839
				c-1.884,6.424,3.015-6.376-0.135,0.361c0.398-0.853,5.183-5.837,3.329-4.444c-2.051,1.541-3.563,3.593-4.922,5.73
				c2.329-2.264,4.657-4.527,6.986-6.791c-8.937,4.96-11.188,13.485-14.558,22.175c-2.589,6.68-5.327,13.313-8.084,19.922
				c-2.762,6.621-5.669,13.187-8.814,19.635c-0.611,1.235-0.515,1.046,0.293-0.57c-0.718,1.425-1.497,2.83-2.074,4.32
				c-0.504,1.3-1.039,2.588-1.593,3.867c-0.38,0.877-0.709,1.735-1.009,2.642c-0.146,0.438-0.309,0.87-0.474,1.301
				c-0.623,1.629,1.312-2.33,0.423-0.878c5.21-2.674,10.42-5.347,15.631-8.021c-8.424-4.055-14.935-13.575-19.82-21.277
				c-5.215-8.221-9.207-17.677-12.318-26.883C611.429,178.373,598.405,188.897,599.286,194.769L599.286,194.769z"/>
		</g>
	</g>
</g>
<g>
	<path stroke="#000000" stroke-width="2" stroke-miterlimit="10" d="M647.349,344.563c-10.021-2.657-15.718,6.029-17.95,14.604
		c-3.402,13.051-1.219,28.486,4.439,40.592c5.774,12.348,17.506,19.83,30.537,22.666c2.485,0.54,5.185-7.029,3.049-7.604
		c-11.375-3.069-20.436-9.391-26.969-19.204c-6.408-9.626-8.756-22.414-7.75-33.81c0.293-3.315,0.767-6.808,3.813-8.641
		c2.771-1.669,6.391-0.676,9.138,0.467c8.7,3.61,14.491,11.893,21.276,17.991c1.988,1.783,3.886-4.576,3.254-6.045
		C666.159,356.193,657.471,347.246,647.349,344.563z"/>
	<path stroke="#000000" stroke-width="2" stroke-miterlimit="10" d="M674.244,335.166c-2.469-3.275-6.425-5.354-10.467-5.743
		c-5.938-0.571-11.095,2.499-15.845,5.75c-0.65,0.444-2.451,4.519-0.894,4.194c4.492-0.934,9.744-0.932,14.126,0.582
		c3.938,1.36,6.688,4.418,8.781,7.914c4.706,7.855,4.91,18.563,3.667,27.12c-0.372,2.562-0.554,3.324-1.305,5.909
		c-0.384,1.314-1.049,2.941-1.72,4.176c-2.073,3.829-5.622,7.216-9.686,8.835c-7.702,3.067-16.339-0.3-22.001-5.831
		c-2.961-2.894-5.313-6.533-6.396-10.544c-0.491-1.815-0.554-3.677-0.346-5.015c-0.057,0.363,0.352-0.86,0.199-0.608
		c0.177-0.326,0.618-0.999,1.13-1.559c1.53-1.684,2.603-4.152,2.584-6.448c-0.018-1.879-1.33-2.464-2.646-1.06
		c-12.94,13.827-5.51,37.112,12.323,42.342c9.921,2.909,18.574-2.552,24.582-10.109c7.029-8.84,9.651-20.581,10.361-31.609
		C681.308,353.988,680.134,342.979,674.244,335.166z"/>
	<path stroke="#000000" stroke-width="2" stroke-miterlimit="10" d="M653.284,366.361c-0.311,0.162-0.603,0.358-0.874,0.584
		c-0.975,0.184-1.914,0.796-2.616,1.422c-0.792,0.708-1.456,1.65-1.96,2.7c-1.496,1.462-2.452,3.631-2.711,5.545
		c-0.167,1.261-0.005,2.392,0.442,3.409c0,0.123-0.009,0.248-0.007,0.371c0.044,1.641,0.558,3.595,2.274,4.209
		c0.99,0.353,1.946,0.26,2.833-0.088c0.337,0.106,0.686,0.191,1.044,0.23c2.014,0.217,3.352-1.247,4.216-2.946
		c1.478-1.383,2.342-4.41,1.933-5.955c-0.125-0.469-0.322-0.999-0.576-1.545c0-0.077,0-0.156-0.008-0.225
		c-0.196-2.016-0.508-4.254-1.823-5.813c-0.106-0.298-0.207-0.587-0.289-0.866C654.809,366.214,654.421,365.774,653.284,366.361z"/>
</g>
</svg>
