<?xml version="1.0" encoding="utf-8"?>
<!-- Generator: Adobe Illustrator 16.0.0, SVG Export Plug-In . SVG Version: 6.00 Build 0)  -->
<!DOCTYPE svg PUBLIC "-//W3C//DTD SVG 1.1//EN" "http://www.w3.org/Graphics/SVG/1.1/DTD/svg11.dtd">
<svg version="1.1" id="Layer_1" xmlns="http://www.w3.org/2000/svg" xmlns:xlink="http://www.w3.org/1999/xlink" x="0px" y="0px"
	 width="800px" height="600px" viewBox="0 0 800 600" enable-background="new 0 0 800 600" xml:space="preserve">
<g>
	<g>
		<g>
			<g>
				<path fill="#7A7A7A" d="M179.315,322.186c-39.655,37.289-67.285,84.229-102.405,125.397
					c6.807,6.573,13.614,13.147,20.421,19.721c12.993-19.891,35.155-30.865,57.25-37.607c12.249-3.738,24.794-6.461,37.335-9.009
					c5.914-1.202,11.776-2.655,17.647-4.047c5.535-1.313,10.155-2.686,13.206-7.711c3.12-5.14-7.057-12.436-11.098-13.384
					c-6.867-1.612-12.846-1.61-19.762-0.282c-6.02,1.156-12.074,2.177-18.047,3.563c-12.305,2.855-24.553,5.98-36.546,9.965
					c-22.823,7.582-46.586,18.121-60.408,38.791c-4.81,7.194,15.427,25.84,20.421,19.721c34.418-42.181,60.327-90.612,94.988-132.56
					C195.726,330.622,183.182,318.55,179.315,322.186L179.315,322.186z"/>
			</g>
		</g>
		<g>
			<g>
				<path d="M177.917,305.967c32.028,16.607,65.087,30.398,99.103,42.373c16.458,5.793,33.015,11.176,49.713,16.231
					c8.394,2.542,16.786,5.07,25.241,7.397c8.377,2.305,16.826,5.427,25.517,5.971c7.562,0.473-3.154-11.231-5.444-12.397
					c-16.327-8.314-34.397-13.413-51.767-19.175c-16.616-5.512-33.264-10.929-49.866-16.484
					c-32.471-10.866-64.846-22.511-96.384-35.865c-2.065-0.875-4.75-0.599-4.19,2.278
					C170.593,300.164,174.533,304.213,177.917,305.967L177.917,305.967z"/>
			</g>
		</g>
		<g>
			<g>
				<path fill="#7A7A7A" d="M287.764,287.092c48.043,4.39,96.755-2.933,141.076-22.219c-6.215-6.706-12.43-13.411-18.644-20.116
					c-14.734,11.895-28.746,24.627-42.149,37.999c-6.569,6.554-12.901,13.326-19.207,20.13c-3.349,3.613-6.638,7.281-9.899,10.974
					c-3.86,4.372-6.876,7.182-5.128,13.313c1.558,5.463,7.12,11.285,12.831,12.39c5.533,1.07,7.563-1.129,10.969-5.115
					c3.199-3.745,6.459-7.437,9.748-11.103c6.604-7.362,13.517-14.453,20.531-21.424c13.429-13.345,27.57-25.978,42.361-37.794
					c5.889-4.704-12.402-22.796-18.644-20.116c-42.633,18.307-87.693,26.77-133.874,29.376c-2.975,0.168-0.546,4.986,0.082,5.973
					C279.795,282.465,283.807,286.73,287.764,287.092L287.764,287.092z"/>
			</g>
		</g>
		<g>
			<g>
				<path d="M385.396,336.068c5.296-1.229,10.858-1.808,15.944-3.732c5.475-2.072,10.926-4.204,16.365-6.363
					c10.717-4.255,21.053-9.814,31.363-14.962c19.97-9.971,40.751-20.445,56.95-36.036c3.581-3.447-7.614-13.635-11.461-12.366
					c-21.361,7.046-41.035,18.497-60.722,29.238c-10.041,5.478-20.534,10.289-30.423,16.02c-4.841,2.807-9.702,5.578-14.585,8.312
					c-4.78,2.677-8.619,6.305-13.013,9.553C372.498,328.184,382.271,336.794,385.396,336.068L385.396,336.068z"/>
			</g>
		</g>
		<g>
			<g>
				<path d="M493.183,265.944c-12.635,7.407-23.773,16.356-34.019,26.792c-10.864,11.065-19.74,23.88-28.323,36.753
					c-8.693,13.04-16.33,26.836-23.579,40.726c-6.965,13.345-13.766,26.947-16.295,41.866c-0.82,4.837,10.56,17.512,15.375,13.283
					c10.332-9.072,16.684-21.551,23.5-33.345c7.841-13.567,15.716-27.095,23.78-40.531c8.05-13.413,16.983-26.257,25.879-39.112
					c8.128-11.746,16.942-23.404,27.023-33.548C510.447,274.88,497.821,263.225,493.183,265.944L493.183,265.944z"/>
			</g>
		</g>
		<g>
			<g>
				<path d="M481.904,214.786c18.129,13.239,40.198,21.221,61.105,28.879c23.239,8.511,46.971,15.631,70.903,21.919
					c-4.261-6.681-8.521-13.362-12.781-20.043c-22.138-0.443-38.756,12.966-53.389,28.263c-15.24,15.932-28.527,34.308-39.11,53.582
					c-2.775,5.056,8.914,16.753,13.848,13.373c16.826-11.532,28.968-29.407,42.759-44.27c7.242-7.804,15.063-15.153,23.876-21.162
					c7.018-4.785,16.01-9.84,24.798-9.743c5.732,0.063,3.929-5.334,1.762-8.737c-3.367-5.285-8.501-9.589-14.543-11.306
					c-21.736-6.178-43.837-13.422-65.366-20.988c-10.701-3.76-21.318-7.78-31.738-12.263c-2.206-0.949-4.395-1.937-6.574-2.943
					c-1.031-0.476-2.055-0.967-3.077-1.459c-1.211-0.592-1.323-0.646-0.336-0.161c-0.622-0.315-1.243-0.635-1.861-0.958
					c-1.73-0.898-3.432-1.851-5.116-2.832c-0.768-0.447-1.522-0.916-2.275-1.387c-3.082-1.923,1.046,0.786-0.633-0.421
					c-1.882-1.354-10.526-7.125-11.505-1.651C471.701,205.774,478.188,212.072,481.904,214.786L481.904,214.786z"/>
			</g>
		</g>
		<g>
			<g>
				<path d="M441.561,180.011c-0.811-0.892-1.369-1.904-1.675-3.037c-0.204-0.841,0.03-0.733-0.045-0.228
					c-0.036,0.245-0.508,1.323-0.098,0.498c-0.407,0.819-0.95,1.566-1.399,2.362c-2.286,4.054,0.422,8.092,3.514,11.006
					c2.01,1.895,4.304,3.556,6.939,4.459c2.172,0.745,6.473,2.262,8.515,0.891c0.88-0.59,1.759-1.181,2.639-1.771
					c0.758-0.508,0.721-2.307,0.827-3.114c0.24-1.831-0.731-3.692-1.674-5.171c-1.917-3.009-4.587-5.418-7.579-7.319
					c-3.448-2.19-11.629-6.441-13.857-0.57c-0.92,2.423,0.63,6.166,1.929,8.005c0.743,1.052-0.891-1.927-0.446-0.808
					c0.52,1.31-0.357-1.256-0.109-0.388c0.146,0.515-0.034,1.099,0.059-0.354c-0.071,1.117,0.12,1.597,0.493,2.678
					c0.58,1.676,2.07,3.298,3.312,4.498c0.95,0.927,1.993,1.733,3.13,2.417c-2.159-1.463-2.201-1.491-0.127-0.083
					c1.275,0.833,2.927,1.554,4.486,1.257c0.549-0.104,1.065-0.482,1.521-0.801c0.158-0.111,0.305-0.237,0.453-0.361
					c-0.595,0.652-0.349,0.6,0.736-0.157c0.387-0.254,0.605-0.647,0.657-1.179c0.131-0.498,0.8-1.96-0.016-0.349
					c0.271-0.536,1.211-2.473,0.322-0.699c0.113-0.226,0.287-0.405,0.474-0.569c0.587-0.517-1.186,0.477-0.38,0.244
					c1.255-0.364-1.21-0.136-0.196-0.004c0.971,0.126-1.844-0.692,0.061,0.035c0.65,0.249,1.293,0.529,1.93,0.811
					c-3.73-4.004-7.46-8.007-11.19-12.011c0.089,0.798,0.208,1.599,0.263,2.399c0.153-0.82,0.307-1.64,0.46-2.46
					c-0.315,0.583-0.744,1.125-1.112,1.675c-0.213,0.318-0.426,0.636-0.639,0.955c0.491-0.405,0.404-0.498-0.26-0.28
					c-0.342,0.042-0.685,0.076-1.028,0.1c0.874-0.072-0.563-0.085-0.794-0.125c0.939,0.308,1.142,0.361,0.604,0.161
					c4.129,1.759,6.711,4.484,7.747,8.177c-0.171-0.638-0.104,1.178,0.017,0.042c0.034-0.329,0.12-0.653,0.202-0.973
					c0.33-1.292,0.874-2.515,1.025-3.85c0.392-3.464-2.004-6.55-4.311-8.835c-1.446-1.434-4.193-3.737-6.467-3.248
					C437.604,174.553,440.778,179.048,441.561,180.011L441.561,180.011z"/>
			</g>
		</g>
		<g>
			<g>
				<path d="M542.746,185.024c0.421,1.271,0.084,0.052,0.085-0.341c-0.001,1.765,0.523,3.301,1.543,4.769
					c1.108,1.597,2.249,3.174,3.451,4.702c2.513,3.196,5.486,5.983,8.611,8.565c4.554,3.762,10.249,6.676,16.159,7.395
					c9.929,1.208,19.171-4.16,27.002-9.615c20.006-13.934,35.053-34.764,57.566-45.194c5.269-2.44,10.796-3.938,16.592-4.345
					c5.432-0.382,10.807,0.88,15.296,2.747c0.728,0.303,1.439,0.642,2.151,0.98c-2.138-1.017,0.304,0.218,0.607,0.387
					c0.736,0.41,1.452,0.855,2.168,1.299c2.494,1.546-1.975-1.423,0.475,0.303c1.514,1.067,2.957,2.233,4.378,3.421
					c-2.502-2.092,0.047,0.097,0.45,0.47c1.01,0.936,1.979,1.915,2.944,2.897c4.208,4.286,8.103,8.965,13.692,11.515
					c7.152,3.263,4.656-4.894,2.456-8.315c-5.958-9.263-15.278-16.951-24.331-23.041c-6.272-4.219-13.179-7.325-20.551-9.014
					c-11.621-2.662-23.636,0.49-34.021,5.792c-20.123,10.275-36.071,27.363-53.261,41.69c-6.507,5.423-13.219,10.589-21.7,11.739
					c-2.082,0.282-1.53,0.292-4.095-0.139c-0.31-0.057-0.617-0.121-0.924-0.194c-1.636-0.367,1.596,0.528-0.014-0.021
					c-0.458-0.156-0.909-0.339-1.357-0.521c-1.675-0.681,1.848,0.999,0.207,0.122c-0.304-0.167-0.604-0.342-0.898-0.525
					c-1.702-1.022,1.929,1.395,0.272,0.174c-0.555-0.409-2.128-1.801,0.236,0.276c-0.471-0.414-0.917-0.855-1.363-1.296
					c-1.646-1.624,1.568,1.78-0.031-0.038c-0.475-0.54-0.923-1.102-1.372-1.663c-1.214-1.519-2.547-2.998-4.134-4.144
					c-1.991-1.44,2.621,2.847,0.546,0.538C549.824,184.44,540.33,177.729,542.746,185.024L542.746,185.024z"/>
			</g>
		</g>
	</g>
</g>
</svg>
