<?xml version="1.0" encoding="utf-8"?>
<!-- Generator: Adobe Illustrator 16.0.0, SVG Export Plug-In . SVG Version: 6.00 Build 0)  -->
<!DOCTYPE svg PUBLIC "-//W3C//DTD SVG 1.1//EN" "http://www.w3.org/Graphics/SVG/1.1/DTD/svg11.dtd">
<svg version="1.1" id="Layer_1" xmlns="http://www.w3.org/2000/svg" xmlns:xlink="http://www.w3.org/1999/xlink" x="0px" y="0px"
	 width="800px" height="600px" viewBox="0 0 800 600" enable-background="new 0 0 800 600" xml:space="preserve">
<g>
	<g>
		<path d="M231.378,387.842V260.835c0-3.079,0.453-11.854,1.37-26.325h-0.498c-2.578,6.735-4.743,11.936-6.487,15.596
			l-63.629,137.736h-3.994L94.263,250.854c-2.078-4.409-4.037-10.023-5.863-16.843h-0.624c0.581,7.983,0.875,15.926,0.875,23.827
			v130.003H76.298v-178.91h11.478l66.747,144.101c0.415,0.831,0.875,1.954,1.372,3.368c0.502,1.414,1.042,2.827,1.623,4.243
			c0.828,2.163,1.704,4.572,2.62,7.235h0.749l1.372-3.992c0.081-0.332,1.497-4.283,4.243-11.853l65.749-143.103h10.979v178.91
			H231.378z"/>
		<path d="M312.197,372.537l-62.699-70.283c-1.418-1.58-2.416-2.953-2.995-4.116h-0.498v89.704h-12.353v-178.91h12.353v84.34h0.498
			c0.998-1.748,2.076-3.203,3.246-4.366l61.936-68.439h16.095l-68.052,75.175l69.813,76.896H312.197z"/>
		<path d="M246.742,220.581v156.328l26.598-0.294c26.531,0,46.908-6.884,61.132-20.648c14.224-13.765,21.333-33.622,21.333-59.575
			c0-50.736-26.657-76.104-79.973-76.104L246.742,220.581z M231.438,387.842v-178.91h46.266c29.694,0,52.276,7.404,67.747,22.208
			c15.47,14.807,23.207,36.391,23.207,64.751c0,27.284-8.298,49.429-24.892,66.438c-16.593,17.008-39.486,25.513-68.682,25.513
			H231.438z"/>
	</g>
	<g>
		<path d="M392.936,298.396c0,13.322,3.078,23.744,9.23,31.257c6.155,7.514,14.615,11.706,25.334,11.271
			c17.806-0.723,21.473-4.013,65.837-36.17l8.503,3.252c-44.05,31.274-55.203,40.402-76.135,40.87
			c-12.501,0.281-22.605-4.481-30.311-13.449c-7.699-8.963-11.553-21.625-11.553-37.975c0-14.147,4.028-26.062,12.074-35.757
			c8.05-9.692,18.518-14.536,31.397-14.536c12.061,0,21.314,4.228,27.752,12.689c6.44,8.461,9.66,20.017,9.66,34.664v3.883H392.936z
			 M455.634,290.442c-0.381-11.176-3.063-19.855-8.053-26.045c-4.987-6.188-11.869-9.283-20.646-9.283
			c-9.092,0-16.623,3.043-22.586,9.139c-5.968,6.095-9.647,14.824-11.034,26.189H455.634z"/>
		<path d="M482.601,342.248v-10.515c3.286,2.841,7.261,5.083,11.932,6.727c4.675,1.642,8.716,2.465,12.122,2.465
			c15.22,0,22.825-6.217,22.825-18.66c0-4.296-1.67-7.956-5.016-10.984c-3.347-3.037-8.776-6.159-16.291-9.38
			c-9.283-4.038-15.802-8.222-19.558-12.551c-3.758-4.32-5.636-9.579-5.636-15.77c0-7.89,3.016-14.264,9.045-19.129
			c6.029-4.863,13.465-7.291,22.304-7.291c8.335,0,15.47,1.705,21.404,5.11v9.853c-7.195-4.674-14.649-7.009-22.355-7.009
			c-6.371,0-11.519,1.66-15.434,4.972c-3.913,3.318-5.872,7.625-5.872,12.925c0,4.611,1.231,8.353,3.692,11.226
			c2.463,2.875,7.895,6.173,16.293,9.896c10.101,4.547,17.048,8.764,20.836,12.645c3.788,3.886,5.681,9.048,5.681,15.487
			c0,7.705-2.888,14.064-8.667,19.084c-5.778,5.021-13.749,7.528-23.913,7.528C496.646,348.877,488.854,346.665,482.601,342.248z"/>
		<path d="M562.195,348.507h8.709c0,0-3.847-44.028-24.724-60.143c-21.667-16.723-36.372-0.897-36.372-0.897l6.849,3.033
			c0,0,11.114-10.161,26.605,6.844C559.405,315.063,562.195,348.507,562.195,348.507z"/>
		<path d="M656.384,339.313c0,18.246-3.979,31.6-11.934,40.063c-7.956,8.46-20.334,12.69-37.131,12.69
			c-9.341,0-41.049-4.696-43.967-28.72l8.868,0.226c3.105,15.604,26.137,20.54,35.29,20.54c26.771,0,40.159-14.146,40.159-42.432
			v-12.595h-0.38c-7.642,13.197-19.29,19.792-34.947,19.792c-11.934,0-21.674-4.321-29.22-12.974
			c-7.544-8.655-11.316-20.71-11.316-36.183c0-15.465,4.07-28.096,12.214-37.882c8.147-9.788,18.882-14.679,32.208-14.679
			c14.266,0,24.621,5.904,31.062,17.708h0.38v-15.342h8.714V339.313z M647.67,286.75c0-8.589-2.89-16.011-8.666-22.263
			c-5.78-6.247-13.305-9.373-22.589-9.373c-10.67,0-19.258,4.008-25.761,12.028c-6.504,8.018-9.754,18.627-9.754,31.824
			c0,13.254,2.978,23.564,8.947,30.926c5.968,7.352,13.844,11.033,23.631,11.033c10.417,0,18.72-3.379,24.908-10.136
			c6.189-6.757,9.283-15.025,9.283-24.817V286.75z"/>
		<path d="M713.479,346.51v-56.445c0-23.3-8.396-34.951-25.196-34.951c-9.343,0-17.012,3.426-23.012,10.276
			c-6,6.854-8.998,15.332-8.998,25.429v55.691h-8.714v-96.984h8.714v17.616h0.376c7.071-13.321,18.127-19.982,33.15-19.982
			c10.482,0,18.503,3.485,24.056,10.467c5.558,6.974,8.335,16.936,8.335,29.88v59.003H713.479z"/>
		<circle cx="508.799" cy="269.731" r="6.397"/>
	</g>
</g>
</svg>
