<?xml version="1.0" encoding="utf-8"?>
<!-- Generator: Adobe Illustrator 16.0.0, SVG Export Plug-In . SVG Version: 6.00 Build 0)  -->
<!DOCTYPE svg PUBLIC "-//W3C//DTD SVG 1.1//EN" "http://www.w3.org/Graphics/SVG/1.1/DTD/svg11.dtd">
<svg version="1.1" id="Layer_1" xmlns="http://www.w3.org/2000/svg" xmlns:xlink="http://www.w3.org/1999/xlink" x="0px" y="0px"
	 width="1920px" height="1080px" viewBox="0 0 1920 1080" enable-background="new 0 0 1920 1080" xml:space="preserve">
<g>
	<g>
		<g>
			<path fill="#8D3500" d="M519.004,444.021c12.405-42.945,61.365-66.893,102.698-72.48c39.979-5.406,77.033,10.753,97.536,45.571
				c16.75,28.447,22.098,62.091,21.816,94.65c-0.364,42.262-7.377,78.86-16.255,119.732
				c-15.512,71.404-37.677,141.146-54.106,212.338c-7.279,31.538-14.076,63.664-15.865,96.048
				c-1.208,21.837-3.427,50.571,14.883,66.194c7.266,6.198,17.314-19.236,17.481-23.308c0.646-15.925,1.302-31.896,2.201-47.807
				c0.453-8.008,0.947-15.985,1.816-23.964c0.461-4.237,1.031-8.466,1.629-12.685c0.128-0.906,1.264-8.147,0.259-1.902
				c0.713-4.435,1.39-8.87,2.033-13.313c0.129-0.888,1.292-8.191,0.283-1.952c0.361-2.232,0.748-4.464,1.134-6.695
				c0.791-4.561,1.651-9.111,2.529-13.655c1.986-10.278,4.211-20.507,6.527-30.712c4.741-20.901,10.046-41.674,15.441-62.415
				c21.759-83.617,47.085-169.787,49.915-256.646c1.069-32.767-1.547-65.88-13.233-96.741
				c-10.105-26.688-31.77-47.242-56.479-60.782c-36.616-20.063-85.617-8.637-120.822,8.777
				c-31.074,15.373-72.792,49.738-69.633,88.69C511.289,457.091,518.576,445.506,519.004,444.021L519.004,444.021z"/>
		</g>
		<g>
			<path fill="#8D3500" d="M617.362,336.341c9.544-5.463,17.873-12.708,27.242-18.514c11.808-7.317,24.418-13.302,37.242-18.597
				c26.086-10.769,54.02-17.266,82.13-19.507c39.436-3.144,84.108,5.782,108.643,39.708c19.985,27.635,24.112,66.857,23.896,98.75
				c-0.311,45.39-7.627,83.214-16.579,126.209c-7.809,37.508-17.004,74.697-24.5,112.272c-3.537,17.729-6.769,35.546-8.561,53.551
				c-0.848,8.54-1.237,17.071-0.982,25.646c0.165,5.581,0.503-1.488,0.628,4.711c0.091,4.462,0.022,9.087,0.606,13.523
				c0.522,3.961,2.596,6.396,6.63,6.47c0.849,0.017,1.698,0.032,2.549,0.049c6.149,0.112,11.505-9.633,13.839-13.97
				c6.081-11.302,8.497-22.252,10.332-34.786c0.128-0.865,1.986-7.057,0.625-2.309c0.632-2.203,1.186-4.426,1.676-6.661
				c1.111-5.071,1.837-10.253,2.848-15.349c3.902-19.692,7.662-39.415,11.639-59.092c9.002-44.526,17.959-89.029,24.951-133.927
				c6.489-41.662,10.729-84.038,7.263-126.194c-2.815-34.188-13.605-66.406-38.754-90.542
				c-31.883-30.598-80.334-33.928-121.923-27.976c-29.071,4.159-57.574,13.58-84.186,25.839
				c-23.557,10.853-49.999,25.326-66.177,46.106C617.139,323.422,610.04,340.532,617.362,336.341L617.362,336.341z"/>
		</g>
		<g>
			<path fill="#8D3500" d="M742.147,325.126c29.693,0.559,55.915,11.438,68.453,39.688c12.029,27.1,9.049,60.403,5.388,88.963
				c-4.265,33.271-12.598,66.125-21.417,98.438c-6.418,23.514-14.773,47.054-13.913,71.711c0.161,4.644,6.243-4.079,6.57-5.556
				c13.505-61.268,34.594-120.84,41.636-183.521c3.24-28.858,3.4-60.725-10.459-87.088c-14.005-26.637-42.948-35.856-71.354-35.823
				C742.825,311.943,737.5,325.039,742.147,325.126L742.147,325.126z"/>
		</g>
		<g>
			<path d="M671.104,730.857c-21.754,35.118-66.169,47.237-105.248,39.302c-41.83-8.495-77.181-40.727-84.709-83.167
				c-8.462-47.708,15.939-100.436,39.438-140.504c13.912-23.723,29.432-45.79,48.176-65.966
				c9.933-10.693,20.74-20.546,31.856-29.988c10.509-8.926,21.458-16.184,29.278-27.763c0.532-0.788,3.348-6.306,1.115-6.846
				c-10.366-2.5-22.067,11.542-29.132,17.505c-12.41,10.476-24.065,21.832-35.169,33.676c-20.675,22.051-37.4,46.942-52.514,73.021
				c-27.313,47.129-50.771,101.77-48.233,157.302c1.23,26.893,9.814,51.655,28.494,71.388
				c16.188,17.095,36.378,25.325,59.372,28.679c46.576,6.793,92.486-16.995,117.531-55.97c1.371-2.136,2.596-4.383,3.841-6.594
				C678.09,729.809,675.124,724.368,671.104,730.857L671.104,730.857z"/>
		</g>
		<g>
			<path d="M897.6,259.121c57.984-41.602,122.17-76.047,186.783-106.035c35.208-16.341,71.73-30.038,109.449-39.324
				c16.617-4.091,33.505-7.042,50.522-8.828c8.025-0.842,16.087-1.243,24.15-1.391c9.697-0.178,18.104-4.17,26.996-7.772
				c2.354-0.953,5.771-7.06,3.429-9.167c-5.36-4.825-10.207-9.063-17.66-9.471c-8.937-0.488-18.158,0.476-27.054,1.278
				c-18.098,1.631-36.01,5.093-53.655,9.357c-37.899,9.159-74.626,23.202-110.071,39.298
				c-70.851,32.175-135.928,77.333-192.759,130.281C897.339,257.711,896.539,259.882,897.6,259.121L897.6,259.121z"/>
		</g>
		<g>
			<path d="M969.26,388.467c-15.265,17.291-23.898,41.126-31.857,62.467c-9.931,26.635-16.791,54.041-21.644,82.022
				c-9.479,54.638-12.349,111.242-4.541,166.28c6.171,43.495,22.061,92.414,59.149,119.295c27.166,19.69,62.227,16.716,89.703-0.479
				c50.253-31.448,72.401-92.638,78.314-148.86c4.74-45.087,6.944-90.372,11.446-135.47c4.396-44.035,13.391-87.539,20.378-131.2
				c1.042-6.508-4.217-3.002-5.908,0.602c-15.514,33.066-25.353,66.407-31.211,102.433c-5.352,32.906-8.375,66.08-10.86,99.309
				c-2.445,32.692-2.894,65.664-6.722,98.239c-2.267,19.301-8.356,38.728-18.49,55.369c-17.088,28.06-46.807,48.688-80.668,45.392
				c-41.568-4.05-65.616-47.011-77.762-82.113c-18.378-53.107-16.595-113.891-10.783-168.967
				c3.109-29.477,8.984-58.581,16.137-87.325c6.531-26.247,17.609-50.091,27.152-75.204
				C971.791,388.423,971.045,386.446,969.26,388.467L969.26,388.467z"/>
		</g>
		<g>
			<path d="M1042.85,378.32c28.479,9.034,56.683,14.78,86.521,16.613c30.522,1.875,60.866,2.094,90.708-5.137
				c50.175-12.158,99.253-40.816,129.514-83.308c18.573-26.085,35.131-73.102,4.343-97.009
				c-16.684-12.957-39.478-13.436-59.56-12.136c-14.454,0.935-28.502,1.928-42.536,5.763c-15.885,4.34-30.995,11.28-45.604,18.771
				c-22.345,11.46-44.658,23.253-60.883,42.605c-0.599,0.711-4.246,6.93-1.775,7.419c4.89,0.966,7.324,1.439,12.099-0.159
				c6.785-2.27,13.715-7.885,19.999-11.378c13.767-7.654,27.857-14.688,42.435-20.668c26.377-10.822,54.39-14.348,82.22-7.54
				c24.755,6.054,59.176,24.774,45.974,52.682c-8.475,17.913-24.825,31.888-40.296,43.609
				c-24.02,18.201-51.795,30.813-80.764,38.748c-29.505,8.084-60.082,13.563-90.694,13.805c-29.927,0.238-60.464-2.213-90.091-6.334
				C1043.438,374.524,1041.82,377.993,1042.85,378.32L1042.85,378.32z"/>
		</g>
	</g>
	<g>
		<path d="M1277.842,99.54c24.787-1.004,69.395,6.117,57.647,40.936c-3.937,11.667-13.448,23.321-23.321,32.503
			c-6.313,5.872-13.225,11.008-20.639,15.391c-3.705,2.189-7.58,4.072-11.513,5.815c-5.391,2.392-8.4,7.403-12.211,11.612
			c-2.071,2.285-7.305,10.811-4.369,14.023c0.997,1.091,1.744,1.768,2.328,3.126c0.741,1.26,1.837,1.819,3.288,1.676
			c38.129-11.981,71.991-53.864,83.02-91.106c4.4-14.862,5.347-32.759-5.623-45.06c-14.152-15.871-39.549-16-58.998-14.764
			C1279.065,74.224,1269.045,99.896,1277.842,99.54L1277.842,99.54z"/>
	</g>
</g>
</svg>
