<?xml version="1.0" encoding="utf-8"?>
<!-- Generator: Adobe Illustrator 16.0.0, SVG Export Plug-In . SVG Version: 6.00 Build 0)  -->
<!DOCTYPE svg PUBLIC "-//W3C//DTD SVG 1.1//EN" "http://www.w3.org/Graphics/SVG/1.1/DTD/svg11.dtd">
<svg version="1.1" id="Layer_1" xmlns="http://www.w3.org/2000/svg" xmlns:xlink="http://www.w3.org/1999/xlink" x="0px" y="0px"
	 width="800px" height="600px" viewBox="0 0 800 600" enable-background="new 0 0 800 600" xml:space="preserve">
<g>
	<g>
		<g>
			<path d="M225.625,454.616c-6.66,4.599-13.904,7.788-21.903,9.178c-3.427,0.596-6.934,1.17-10.417,1.377
				c-2.879,0.171,2.325,0.079-0.557,0.031c-0.855-0.014-1.709-0.076-2.562-0.137c-2.018-0.146-4.019-0.471-6.003-0.856
				c-0.866-0.168-1.724-0.378-2.58-0.588c-3.093-0.756,3.145,0.979,0.085,0.033c-1.743-0.539-3.45-1.19-5.142-1.871
				c-1.302-0.524-7.264-3.449-1.982-0.776c-2.007-1.016-3.971-2.122-5.908-3.265c-1.421-0.838-7.444-4.875-1.611-0.887
				c-1.689-1.154-3.332-2.377-4.96-3.616c-1.668-1.27-3.291-2.6-4.899-3.944c-3.198-2.675,4.183,3.674,1.044,0.895
				c-1.079-0.956-2.135-1.937-3.189-2.92c-1.603-1.498-3.163-3.04-4.709-4.596c-1.274-1.281-6.799-7.244-1.52-1.501
				c-3.322-3.613-6.501-7.364-9.624-11.15c-2.913-3.53-5.703-7.159-8.425-10.839c3.867,5.227-0.807-1.194-1.674-2.44
				c-1.509-2.168-2.975-4.365-4.422-6.574c-2.423-3.697-4.739-7.465-6.985-11.272c-1.087-1.844-2.143-3.706-3.186-5.576
				c-0.464-0.832-2.234-4.137,0.008,0.04c-0.65-1.21-1.282-2.43-1.911-3.65c-3.557-6.898-6.761-13.991-9.438-21.277
				c-0.282-0.769-0.55-1.542-0.818-2.315c-0.946-2.733,0.924,2.938,0.084,0.24c-0.438-1.406-0.829-2.827-1.199-4.252
				c-1.062-4.088-1.771-8.278-2.458-12.441c-0.702-4.256-1.226-8.54-1.616-12.835c-0.468-5.149-0.504-6.549-0.48-11.115
				c0.039-7.128,0.754-14.255,2.239-21.228c0.629-2.958,1.455-5.871,2.415-8.737c0.455-1.359,0.969-2.697,1.505-4.026
				c0.261-0.648,0.542-1.289,0.824-1.929c0.187-0.42,0.379-0.838,0.575-1.255c-0.396,0.807-0.392,0.806,0.011-0.002
				c4.712-9.365,11.915-17.263,20.798-22.815c0.479-0.299,3.56-2.026,1.896-1.147c1.06-0.56,2.144-1.071,3.235-1.566
				c2.377-1.079,4.836-1.969,7.327-2.745c4.89-1.525,9.964-2.416,15.059-2.878c1.25-0.113,2.502-0.183,3.755-0.238
				c0.63-0.028,1.262-0.042,1.893-0.055c2.2-0.048-2.004-0.019,0.206-0.002c2.787,0.021,5.572,0.204,8.345,0.478
				c5.458,0.54,10.858,1.598,16.155,3.006c0.659,0.175,2.976,0.857-0.174-0.063c0.645,0.188,1.285,0.389,1.926,0.589
				c1.286,0.401,2.56,0.838,3.831,1.286c2.767,0.976,5.485,2.084,8.168,3.272c1.243,0.55,2.47,1.134,3.692,1.729
				c-4.111-2,0.307,0.195,1.242,0.699c2.602,1.403,5.141,2.926,7.628,4.521c3.841,2.464-2.048-1.473,0.85,0.568
				c1.117,0.787,2.212,1.605,3.3,2.434c1.085,0.827,2.146,1.685,3.198,2.553c0.899,0.742,2.999,2.589-0.986-0.877
				c0.688,0.598,1.362,1.212,2.034,1.828c1.006,0.922,1.983,1.875,2.951,2.836c0.482,0.48,0.955,0.97,1.428,1.459
				c1.93,2-2.726-2.982-0.848-0.924c1.988,2.178,3.853,4.466,5.628,6.821c-2.993-3.969-0.002,0.047,0.648,1.012
				c0.76,1.127,1.48,2.279,2.186,3.44c0.486,0.8,2.757,4.962,0.88,1.443c0.748,1.402,1.438,2.833,2.103,4.276
				c1.143,2.477,2.126,5.024,3.006,7.605c-0.883-2.592,0.428,1.544,0.616,2.233c0.424,1.558,0.778,3.134,1.102,4.716
				c3.625,17.688-0.081,37.584-6.828,55.274c-1.686,4.421,11.397,16.688,14.427,12.464c7.884-10.993,13.124-22.581,14.365-36.129
				c1.139-12.433-1.109-24.67-5.633-36.241c-9.976-25.52-31.735-46.549-55.137-60.015c-37.434-21.54-98.039-28.902-121.078,16.879
				c-6.217,12.355-8.831,25.729-9.159,39.499c-0.381,15.954,1.318,32.548,6.231,47.777c12.056,37.373,35.046,71.984,62.179,100.082
				c17.202,17.813,37.969,33.666,62.12,40.304c8.698,2.391,18.185,2.438,26.908,0.198c0.678-0.358,1.356-0.717,2.035-1.075
				c-0.872,0.444-0.839,0.428,0.098-0.051c1.389-0.711,2.759-1.45,4.099-2.248c1.968-1.172,3.789-2.578,5.534-4.056
				c3.801-3.218,6.912-7.174,9.682-11.287c3.191-4.737-3.442-11.854-6.502-14.81C237.51,457.564,230.344,451.357,225.625,454.616
				L225.625,454.616z"/>
		</g>
	</g>
	<g>
		<g>
			<path d="M255.611,378.458c8.743-11.393,15.354-23.476,21.806-36.277c8.313-16.496,16.979-32.824,26.575-48.616
				c17.162-28.242,38.979-62.545,70.743-74.755c3.35-1.288,6.822-2.227,10.342-2.915c1.754-0.343,3.53-0.563,5.308-0.738
				c0.894-0.089,1.792-0.134,2.688-0.18c1.138-0.024,1.202-0.038,0.193-0.041c0.606,0.004,1.213,0.018,1.819,0.042
				c3.747,0.116,7.498,0.676,11.137,1.559c3.225,0.782-2.449-0.786,0.758,0.211c1.054,0.328,2.092,0.707,3.131,1.076
				c2.404,0.854,4.77,1.812,7.113,2.82c0.949,0.408,1.886,0.844,2.822,1.281c3.223,1.503-3.041-1.574,0.034,0.024
				c1.662,0.864,3.279,1.81,4.877,2.787c1.06,0.649,3.906,2.606-0.792-0.607c0.704,0.481,1.388,0.99,2.071,1.499
				c0.665,0.495,1.309,1.017,1.951,1.539c2.524,2.049-4.16-3.822-0.839-0.654c4.12,3.93-2.662-3.196,0.167,0.122
				c3.432,4.024-2.003-3.102,0.251,0.268c0.387,0.58,0.745,1.178,1.102,1.776c1.456,2.438-1.921-3.703-0.646-1.19
				c0.715,1.408,1.307,2.875,1.848,4.357c0.892,2.444-0.979-3.21-0.253-0.718c0.188,0.646,0.344,1.299,0.499,1.953
				c0.314,1.316,0.534,2.653,0.725,3.992c0.192,1.361,0.294,2.732,0.368,4.104c-0.178-3.276-0.075,1.891-0.123,2.84
				c-0.321,6.318-1.748,12.552-3.598,18.583c-4.563,14.874-10.335,27.017-17.597,40.116c-15.958,28.786-35.878,55.065-52.498,83.438
				c-6.699,11.437-13.235,23.532-16.654,36.414c-4.163,15.69-0.34,33.254,6.926,47.414c23.544,45.882,86.979,80.739,132.007,42.522
				c5.981-5.076-6.268-18.288-9.329-21.245c-3.86-3.729-15.583-13.977-21.558-8.581c-15.437,13.938-34.618,18.287-53.489,13.274
				c3.129,0.831-0.541-0.241-0.982-0.392c-1.091-0.372-2.164-0.8-3.234-1.227c-1.072-0.427-2.122-0.907-3.17-1.388
				c3.935,1.801,0.355,0.161-0.385-0.238c-1.246-0.673-7.651-4.908-3.005-1.677c-0.966-0.672-1.887-1.405-2.811-2.134
				c-2.763-2.18,3.527,3.282-0.547-0.494c-0.865-0.802-1.69-1.644-2.515-2.485c4.149,4.234,1.191,1.266,0.344,0.281
				c-0.769-0.894-1.493-1.824-2.217-2.755c3.158,4.059,0.639,0.847,0.033-0.049c-0.661-0.977-1.271-1.986-1.88-2.995
				c-2.083-3.448,1.534,3.062-0.307-0.525c-1.261-2.456-2.3-5.02-3.242-7.612c0.988,2.723-0.263-0.965-0.352-1.28
				c-0.323-1.15-0.581-2.318-0.837-3.485c-0.52-2.358-0.832-4.756-1.072-7.156c-0.098-0.982-0.286-7.079-0.223-3.104
				c-0.021-1.316,0.068-2.633,0.189-3.942c0.496-5.347,2.076-10.571,3.927-15.588c4.551-12.333,11.25-23.392,18.874-35.604
				c17.454-27.965,37.496-54.443,53.13-83.513c13.081-24.322,24.355-54.289,10.149-80.783
				c-10.097-18.83-26.509-32.412-45.747-41.275c-15.617-7.195-33.188-10.828-50.122-6.624c-33.51,8.321-57.992,41.493-74.501,69.627
				c-10.684,18.207-19.862,37.281-28.606,56.479c-3.851,8.455-7.86,16.884-10.996,25.632c-2.593,7.232-4.74,14.549-7.085,21.864
				C236.616,368.773,251.663,383.604,255.611,378.458L255.611,378.458z"/>
		</g>
	</g>
	<g>
		<g>
			<path d="M524.845,438.398c5.647-6.931,8.721-14.607,13.028-22.267c3.63-6.455,6.25-13.686,5.45-21.17
				c-1.19-11.136-9.203-20.443-17.367-27.39c-8.973-7.634-19.624-10.368-31.13-10.27c-17.786,0.153-34.901,9.317-41.346,26.357
				c-6.875,18.177,4.624,36.099,18.058,47.499c11.741,9.965,27.431,12.177,41.827,7.597c1.489-0.338,2.377-1.257,2.662-2.757
				c1.315-10.272-9.899-20.082-18.926-22.697c-4.125-1.195-5.922-0.521-9.657,0.777c-2.205,0.767-4.49,1.271-6.796,1.62
				c-0.892,0.135-1.793,0.193-2.692,0.249c1.797-0.111-0.853-0.047-1.041-0.059c-0.814-0.052-1.611-0.186-2.41-0.342
				c-2.701-0.53,2.317,0.81-0.225-0.053c-0.874-0.296-3.376-1.518,0.364,0.35c-1.022-0.511-3.379-2.138,0.8,0.716
				c-1.099-0.75-3.132-2.747,1.082,1.05c-2.064-1.86,3.12,3.754,0.572,0.573c3.043,3.8,1.395,1.909,0.745,0.853
				c2.128,3.461,0.769,1.441,0.338,0.509c-0.306-0.662-0.554-1.348-0.802-2.032c1.073,2.964,0.256,0.606,0.094-0.065
				c-0.353-1.457-0.526-2.952-0.644-4.444c0.16,2.036,0.023-0.445,0.03-0.748c0.025-1.034,0.143-2.063,0.272-3.089
				c0.881-6.965,3.914-12.227,8.968-17.197c6.381-6.275,14.888-9.039,23.612-10.014c4.362-0.488,8.652-0.233,12.936,0.731
				c-2.34-0.526,0.575,0.226,0.922,0.353c0.782,0.288,3.438,1.77,0.15-0.008c1.037,0.516,2.074,1.031,3.112,1.547
				c-1.89-0.979-2.222-1.115-0.997-0.409c-2.061-1.451-2.475-1.71-1.242-0.775c-2.08-1.859-2.529-2.216-1.347-1.066
				c-4.563-4.546,0.779,1.769-2.282-2.644c0.349,0.503,1.675,3.018,0.262,0.283c0.407,0.787,0.742,1.61,1.077,2.43
				c1.087,2.656-0.429-1.697,0.39,1.144c1.238,4.295,2.102,8.597,2.471,13.055c0.779,9.413-1.592,17.9-5.712,26.305
				c-1.123,2.293-2.403,4.505-3.746,6.675C513.688,432.838,522.59,441.165,524.845,438.398L524.845,438.398z"/>
		</g>
	</g>
	<g>
		<g>
			<path d="M503.896,323.164c9.624,3.819,20.669,5.088,30.282,8.305c2.005,0.67,3.978,1.433,5.938,2.22
				c1.137,0.456,2.255,0.954,3.373,1.452c0.323,0.145,3.884,1.909,1.16,0.523c1.694,0.862,3.342,1.813,4.974,2.789
				c0.952,0.569,1.88,1.177,2.807,1.785c-3.577-2.348-0.514-0.287,0.164,0.216c1.033,0.767,5.679,4.835,1.413,1.033
				c1.086,0.968,5.896,6.104,1.856,1.645c1.106,1.221,2.151,2.49,3.169,3.785c2.2,2.796-2.201-3.144-0.185-0.233
				c0.554,0.8,1.071,1.623,1.589,2.446c0.341,0.552,0.674,1.107,0.998,1.668c1.726,2.934-1.473-2.873,0.079,0.151
				c0.89,1.733,1.668,3.521,2.41,5.321c0.267,0.647,1.93,5.367,1.027,2.579c0.614,1.896,1.121,3.826,1.596,5.762
				c3.822,15.58,3.117,30.118,0.879,46.181c-1.229,8.822-3.09,17.551-5.252,26.188c-1.123,4.484-2.371,8.938-3.678,13.372
				c-1.895,6.436-2.836,11.666,0.296,17.988c3.129,6.316,10.813,15.692,18.604,16.159c4.289,0.257,6.302-0.305,8.032-4.384
				c1-2.354,1.846-4.657,2.511-7.129c1.324-4.922,2.523-9.876,3.63-14.852c2.126-9.561,3.746-19.234,4.742-28.979
				c1.938-18.968,1.042-38.19-4.95-56.371c-6.354-19.279-19.579-36.268-35.96-48.119c-8.76-6.337-18.396-11.348-28.651-14.776
				c-5.308-1.774-10.816-3.365-16.37-4.114c-5.104-0.688-13.05-2.428-17.89-0.463C484.469,308.57,500.557,321.838,503.896,323.164
				L503.896,323.164z"/>
		</g>
	</g>
	<g>
		<g>
			<path d="M516.173,256.63c0.138,1.258,0.304,0.837,0.499-1.262c-1.497,1.156-0.483,4.297,0.124,5.514
				c8.976,17.968,29.774,31.384,50.243,27.488c8.315-1.583,16.104-7.132,21.442-13.538c6.946-8.333,9.61-18.475,8.913-29.107
				c-0.885-13.513-11.596-24.858-21.276-33.077c-8.663-7.356-19.131-10.821-30.308-10.688
				c-15.758,0.188-40.017,13.837-32.637,32.411c3.007,7.566,8.568,14.912,17.048,16.423c5.214,0.929,8.674-0.506,12.927-3.333
				c2.897-1.927,5.242-4.577,8.094-6.629c3.287-2.364,3.892-2.571,7.637-4.004c3.031-1.16,6.217-1.875,9.431-2.279
				c0.788-0.1,5.356-0.147,2.01-0.208c1.617,0.03,3.224,0.244,4.813,0.532c3.97,0.72-2.959-1.103,0.744,0.215
				c1.319,0.47,3.924,1.803-1.467-0.896c1.466,0.734,3.851,2.669-1.873-1.401c1.682,1.316,0.805,0.543-2.633-2.318
				c2.634,2.398-4.672-5.771-4.426-5.433c0.783,1.078,1.969,3.738-0.514-1.16c0.383,0.755,0.676,1.552,0.969,2.344
				c-1.521-4.111-0.058,0.757,0.108,1.897c0.026,0.185,0.225,3.434,0.178,1.256c0.024,1.127-0.048,2.255-0.117,3.379
				c-0.297,4.836-1.274,9.71-2.71,14.328c-2.092,6.724-6.621,12.945-12.939,15.918c-2.901,1.365-6.073,2.074-9.251,2.375
				c-2.079,0.198-0.773,0.117-2.84-0.058c-0.843-0.072-5.456-1.131-3.044-0.409c-0.85-0.254-4.935-2.138-1.629-0.453
				c-0.715-0.364-1.394-0.793-2.07-1.222c3.444,2.181,1.162,0.718,0.413,0.095c-1.176-0.987-0.799-0.663,1.13,0.973
				c-2.179-1.988,2.262,2.665,0.336,0.343c3.612,4.356-3.69-4.222-3.388-3.93c-8.482-8.191,4.617,6.913,1.792,2.175
				c-2.289-3.84-6.321-7.451-10.49-9.11C518.764,252.727,515.548,253.001,516.173,256.63L516.173,256.63z"/>
		</g>
	</g>
	<g>
		<g>
			<path d="M650.011,447.338c0.589-0.05,1.139-0.222,1.649-0.516c1.239-0.281,1.979-1.046,2.216-2.295
				c0.098-19.992,0.357-39.959,2.063-59.894c1.853-21.65,5.195-43.16,9.447-64.463c4.195-21.021,9.47-41.834,15.819-62.308
				c2.897-9.342,6.073-18.602,9.497-27.764c1.62-4.336,3.33-8.638,5.097-12.917c0.854-2.068,1.737-4.123,2.63-6.174
				c0.524-1.207,1.063-2.407,1.603-3.607c0.892-1.986,0.267-0.313,1.742-1.753c4.804-4.687-3.048-14.912-5.833-18.281
				c-3.407-4.122-7.085-7.949-11.739-10.69c-3.109-1.831-16.053-6.919-16.833,0.839c-0.154,1.534-0.514,2.518-1.08,3.945
				c-1.84,4.636-3.55,9.323-5.199,14.03c-3.543,10.116-6.647,20.383-9.469,30.722c-6.159,22.563-10.832,45.53-14.46,68.63
				c-3.712,23.637-6.12,47.487-7.317,71.383c-0.569,11.374-0.75,22.767-0.554,34.153c0.21,12.092-0.782,26.925,6.458,37.146
				C638.48,441.382,644.424,448.451,650.011,447.338L650.011,447.338z"/>
		</g>
	</g>
	<g>
		<g>
			<path d="M708.525,136.554c7.9-0.068,15.189,1.007,22.292-2.981c5.088-2.857,6.793-8.231,6.353-13.815
				c-0.644-8.147-6.182-15.582-10.93-21.882c-7.311-9.699-17.08-16.776-27.094-23.415c-2.452-1.626-10.853-5.84-13.518-2.007
				c-11.018,15.849-12.985,40.653,1.777,54.909c3.646,3.522,9.125,6.949,14.516,5.789c3.721-0.8,4.819-6.325,6.199-9.288
				c3.197-6.867,5.514-13.856,9.803-20.224c-4.506-0.669-9.012-1.338-13.518-2.007c2.074,1.359,2.067,1.352-0.021-0.023
				c1.35,0.949,2.646,1.97,3.938,2.995c-3.674-3.225-2.899-2.568,2.321,1.971c1.18,0.884,4.646,4.059-0.244-0.374
				c1.632,1.596,1.214,1.148-1.256-1.342c-4.228-5.297,0.339,2.107-2.157-3.14c1.4,2.944-0.596-2.768,0.005,0.245
				c0.529,2.659,0.228-1.921-0.041,0.7c-0.27,2.646-1.644,4.58-3.753,7.198c-3.111,3.863-5.233,7.899-9.279,10.93
				c-2.496,1.869,1.67,7.347,2.769,8.676C699.578,132.969,703.764,136.595,708.525,136.554L708.525,136.554z"/>
		</g>
	</g>
</g>
<g>
	<path d="M711.338,483.588l42.816,11.315v10.689l-27.47,7.106c-1.433,0.378-3.035,0.607-4.808,0.687v0.119
		c1.951,0.179,3.554,0.438,4.808,0.776l27.47,7.285v11.137l-42.816,11.257v-10.54l28.514-6.031c1.215-0.258,2.848-0.447,4.896-0.566
		v-0.18c-1.532-0.08-3.204-0.368-5.016-0.865l-28.395-7.764v-10.331l28.753-7.017c1.056-0.258,2.588-0.487,4.599-0.687v-0.12
		c-1.572-0.078-3.166-0.287-4.777-0.627l-28.574-5.911V483.588z"/>
	<path d="M754.154,452.475v25.679h-42.816v-24.692h7.852v15.048h9.525v-14.003h7.822v14.003h9.794v-16.034H754.154z"/>
	<path d="M754.154,445.608h-42.816v-15.586c0-4.777,0.876-8.45,2.627-11.018c1.752-2.567,4.221-3.852,7.404-3.852
		c2.311,0,4.33,0.781,6.063,2.344c1.73,1.563,2.936,3.558,3.612,5.986h0.119c0.378-3.046,1.503-5.479,3.374-7.3
		c1.871-1.822,4.15-2.732,6.838-2.732c3.922,0,7.031,1.403,9.33,4.21s3.449,6.639,3.449,11.495V445.608z M718.443,435.964h10.152
		v-4.239c0-1.99-0.482-3.559-1.448-4.703s-2.294-1.717-3.986-1.717c-3.145,0-4.718,2.35-4.718,7.047V435.964z M735.762,435.964
		h11.286v-5.226c0-2.229-0.518-3.975-1.553-5.239c-1.034-1.265-2.448-1.896-4.239-1.896c-1.713,0-3.057,0.621-4.031,1.865
		s-1.463,2.981-1.463,5.211V435.964z"/>
</g>
</svg>
