<?xml version="1.0" encoding="utf-8"?>
<!-- Generator: Adobe Illustrator 16.0.0, SVG Export Plug-In . SVG Version: 6.00 Build 0)  -->
<!DOCTYPE svg PUBLIC "-//W3C//DTD SVG 1.1//EN" "http://www.w3.org/Graphics/SVG/1.1/DTD/svg11.dtd">
<svg version="1.1" id="Layer_1" xmlns="http://www.w3.org/2000/svg" xmlns:xlink="http://www.w3.org/1999/xlink" x="0px" y="0px"
	 width="1920px" height="1080px" viewBox="0 0 1920 1080" enable-background="new 0 0 1920 1080" xml:space="preserve">
<g>
	<g>
		<path d="M596.085,740.872c15.202-70.574,16.648-219.042-90.779-209.726c-76.146,6.606-108.984,120.445-122.458,180.229
			c-17.602,78.1-22.69,160.428,4.438,236.85c25.494,71.824,87.312,104.553,159.395,79.674
			c68.196-23.535,120.972-87.247,152.945-149.356c32.514-63.155,53.391-151.878,11.211-215.14
			c-21.252-31.873-51.892-54.878-84.73-73.689c-36.26-20.772-72.996-39.393-114.217-48.052c-26.507-5.564-58.217-9.025-81.543,7.88
			c-24.464,17.731-34.198,47.139-31.747,76.354c0.723,8.613,11.889-8.672,12.271-12.286c10.133-95.453,144.346-16.223,184.472,12.71
			c33.112,23.876,66.108,58.201,87.916,92.81c19.858,31.507,18.792,71.351,10.853,106.534
			c-16.072,71.223-75.582,140.869-145.853,163.124c-89.488,28.343-135.529-55.853-148.819-131.129
			c-6.992-39.581-3.058-80.095,2.753-119.581c6.568-44.646,17.446-93.638,43.104-131.52c22.792-33.643,64.83-33.94,96.134-11.751
			c41.675,29.539,44.864,106.623,46.594,152.885C588.234,753.384,595.691,742.703,596.085,740.872L596.085,740.872z"/>
	</g>
	<g>
		<path d="M572.175,883.085c-0.972-36.726,11.257-76.878,46.318-94.121c30.89-15.186,68.909-2.196,86.778,25.522
			c14.981,23.243,18.653,53.071,25.271,79.391c7.556,30.052,19.425,53.343,42.406,74.645c46.768,43.342,114.792,24.102,156.5-15.178
			c25.66-24.167,44.08-55.789,55.276-89.015c6.931-20.552,23.907-76.849-0.931-91.314c-6.215-3.619-12.794,12.479-13.701,16.011
			c-9.021,35.008-4.095,72.127-23.726,104.109c-15.652,25.488-42.442,42.902-71.582,48.428
			c-30.581,5.809-58.579-6.813-81.201-26.584c-24.246-21.186-31.027-52.132-38.755-81.858
			c-14.544-55.963-44.98-108.774-112.403-90.224c-60.774,16.722-89.858,99.307-88.372,155.514
			C554.497,915.069,572.397,891.433,572.175,883.085L572.175,883.085z"/>
	</g>
	<g>
		<path d="M989.152,824.692c-18.424,15.722-27.046,40.204-25.906,64.116c0.979,20.496,8.874,66.085,35.637,65.893
			c7.51-0.051,14.132-15.265,14.011-21.299c-0.414-20.194-9.649-38.108-15.784-57.228c-2.283-7.116-3.338-14.514-4.035-21.931
			c-0.043-3.2,0.039-6.407,0.249-9.606c0.384-8.024,6.175-10.09-0.991,0.601C995.635,840.313,1002.621,813.2,989.152,824.692
			L989.152,824.692z"/>
	</g>
	<g>
		<path fill="#7D6300" d="M986.516,721.355c0.012-2.144,0.234-4.365-0.294-6.454c-0.457-1.829-1.292-3.599-1.916-5.384
			c-0.409-1.153-0.745-2.349-1.052-3.536c-0.127-0.509-0.227-1.021-0.311-1.543c-0.392-2.222-0.445,2.696-0.433,2.646
			c-3.22,5.552-6.439,11.105-9.659,16.66c1.472-1.377,6.057-5.482,1.733-1.683c-3.673,3.226,3.177-1.979,2.892-1.756
			c5.818-4.523,10.303-10.916,12.005-18.188c0.655-2.802,1.183-8.838-2.456-10.359c-2.166-0.9-3.721-0.552-5.834,0.279
			c-4.637,1.813-8.623,6.011-11.113,10.172c-3.182,5.327-10.347,17.872-3.8,23.313c-2.306-1.919,1.11,1.54,1.475,1.882
			c0.915,0.85,2.097,1.45,3.242,1.918c1.513,0.624,3.086,1.098,4.646,1.579c2.131,0.648,4.029-0.409,5.992-1.125
			C984.293,728.802,986.502,723.978,986.516,721.355L986.516,721.355z"/>
	</g>
	<g>
		<path d="M930.567,488.222c133.456,94.106,159.048,275.608,188.063,423.641c1.902,9.727,13.614-9.401,13.71-13.734
			c3.687-157.912-43.875-351.278-186.888-439.127C937.508,454.121,922.208,482.33,930.567,488.222L930.567,488.222z"/>
	</g>
	<g>
		<path d="M773.299,517.785c51.499,3.292,98.647-3.422,148.683-15.101c53.063-12.384,106.161-25.096,161.043-21.08
			c66.142,4.846,132.684,41.659,133.877,114.42c1.053,64.41-33.017,128.649-65.059,182.375
			c-34.881,58.466-74.992,113.877-114.583,169.204c-3.206,4.476-8.796,28.713,2.842,18.34
			c52.472-46.798,94.353-105.98,129.896-166.289c39.409-66.85,78.824-143.898,80.839-223.165
			c1.878-73.584-44.573-118.608-114.554-132.043c-59.88-11.504-118.885,1.823-176.463,18.274
			c-57.267,16.361-118.87,40.44-179.193,35.356C774.403,497.555,766.216,517.334,773.299,517.785L773.299,517.785z"/>
	</g>
	<g>
		<path fill="#7D6300" d="M1263.848,446.907c88.079,108.658,206.795-77.786,123.619-157.778
			c-37.534-36.101-91.054-24.286-125.483,10.04c-21.872,21.812-70.311,105.773-13.344,117.928
			c7.853,1.676,15.976-14.903,14.092-21.291c-7.425-25.164-16.759-41.712,6.648-58.4c24.446-17.436,59.658-22.714,87.034-10.196
			c36.891,16.863,47.711,65.271,26.582,97.983c-26.479,41.008-76.248,32.697-105.516,1.201
			C1271.643,420.119,1259.356,441.361,1263.848,446.907L1263.848,446.907z"/>
	</g>
	<g>
		<path fill="#7D6300" d="M1348.008,231.428c17.868-26.026,59.099-19.19,82.443-5.769c31.51,18.118,34.198,53.216,24.337,82.28
			c-2.483,7.338-0.101,14.493,7.13,6.947c36.536-38.138,41.712-101.389-4.979-132.562c-44.309-29.577-96.518-3.486-117.682,40.401
			C1333.914,233.823,1338.636,245.069,1348.008,231.428L1348.008,231.428z"/>
	</g>
	<g>
		<path fill="#7D6300" d="M1426.367,126.072c23.597-9.877,48.947-8.439,70.949,4.676c23.525,14.022,19.507,41.393,24.651,64.113
			c2.647,11.68,14.604-4.556,16.546-8.359c16.734-32.645,19.313-72.646-10.618-98.204c-29.504-25.188-72.591-3.594-98.073,16.082
			C1426.021,107.311,1415.811,130.49,1426.367,126.072L1426.367,126.072z"/>
	</g>
</g>
<g>
	<g>
		<g id="XMLID_1_">
			<g>
				<path d="M1205.737,419.699c6.061,8.21,9.54,18.56,9.54,28.4c0,19.11-13.81,31.96-34.38,31.96c-20.55,0-34.37-12.85-34.37-31.96
					c0-5.62,1.141-11.4,3.24-16.86c-33.72-26.13-54.04-58.99-63.96-78.34c-30.74,1.63-77.1,15.26-83.1,17.06
					c-1.181,1.01-2.4,2-3.65,2.96c-17.04,13.07-38.84,20.27-61.38,20.27c-2.07,0-4.12-0.06-6.16-0.19v18.63
					c2.82,2.16,5.45,4.85,7.83,8.07c6.06,8.21,9.54,18.56,9.54,28.4c0,19.11-13.81,31.96-34.37,31.96s-34.38-12.85-34.38-31.96
					c0-9.85,3.48-20.2,9.55-28.4c2.37-3.22,5.01-5.91,7.83-8.07v-27.03c-7.63-3.54-14.64-8.11-20.79-13.65
					c-16.47-14.85-25.54-35.61-25.54-58.46c0-24.25,10.08-47.02,27.49-63.25c-8.45-1.09-15.34-3.12-19.9-4.76
					c-4.89-1.76-8.64-5.62-10.3-10.6l-2.5-7.51c-1.77-5.3,0.67-11.14,5.66-13.6c11.96-5.87,20.93-10.79,24-13.16
					c0.8-0.61,2.19-3.67,2.93-7.48c-5.26-5.27-7.34-12.23-5.59-19.38c3.25-13.21,17.77-23.41,36.13-25.38
					c20-2.15,38.43,2.71,53.29,14.03c12.79,9.73,22.311,23.79,26.82,39.57c3.8,13.29,3.93,28.53,0.8,42.39
					c15.98,10.55,26.78,22.18,33.09,35.75c12.16-2.22,57.851-10.25,77.8-8.94c1.761,0.11,3.511,0.3,5.25,0.55
					c3.74-6.38,8.421-11.6,11.37-14.59c-5.93-9.14-8.08-19.61-6.01-29.57c2.23-10.74,9.05-20.2,19.75-27.36
					c10.57-7.08,23.78-11.13,36.28-11.13c0.12,0,0.229,0,0.35,0c14,0.09,25.07,5.14,31.16,14.24s6.57,21.28,1.34,34.29
					c-4.71,11.75-13.529,22.58-24.2,29.72c-8.439,5.65-17.34,8.4-25.84,8.4c-9.54,0-18.569-3.47-25.84-10.22
					c-2.01,2.1-4.729,5.19-7.2,8.84c8.15,2.68,15.63,6.9,21.86,12.46c10.99,9.8,17.6,22.97,19.13,38.09
					c0.87,8.68,0.4,17.7-0.05,26.43c-1.061,20.36-2.05,39.65,11.86,57.57c3.46-1.55,7.079-2.37,10.779-2.37
					C1190.157,405.519,1198.978,410.559,1205.737,419.699z M1190.348,232.569c1.85-4.61,2.771-9.06,2.771-13.11
					c0-4.26-1.03-8.07-3.07-11.12c-5.43-8.12-16.25-9.39-22.22-9.43c-0.091,0-0.181,0-0.271,0c-10.26,0-21.56,3.47-30.27,9.3
					c-8.28,5.54-13.521,12.65-15.16,20.55c-1.51,7.28,0.17,15.05,4.74,21.87c9.869,14.74,27.26,17.42,43.3,6.69
					C1178.938,251.449,1186.478,242.189,1190.348,232.569z M920.678,406.289v-14.53c-4.21-0.73-8.33-1.72-12.33-2.97v17.5
					c2.02-0.5,4.08-0.77,6.17-0.77C916.598,405.519,918.658,405.789,920.678,406.289z M907.038,235.799
					c3.24-9.06,6.91-19.32,4.05-30.14c-3-11.36-16.84-10.6-22.22-9.86c-0.95,4.06-2.87,9.52-6.62,12.4
					c-4.76,3.67-16.67,9.8-25.82,14.3c-0.17,0.08-0.23,0.26-0.17,0.44l2.5,7.52c0.61,1.81,1.95,3.2,3.68,3.82
					c8.14,2.93,24.66,7.26,43.92,3.41c0,0,0,0,0.01,0C906.588,237.059,906.808,236.429,907.038,235.799z"/>
				<path d="M1193.118,219.459c0,4.05-0.921,8.5-2.771,13.11c-3.87,9.62-11.41,18.88-20.18,24.75
					c-16.04,10.73-33.431,8.05-43.3-6.69c-4.57-6.82-6.25-14.59-4.74-21.87c1.64-7.9,6.88-15.01,15.16-20.55
					c8.71-5.83,20.01-9.3,30.27-9.3c0.09,0,0.18,0,0.271,0c5.97,0.04,16.79,1.31,22.22,9.43
					C1192.088,211.389,1193.118,215.199,1193.118,219.459z"/>
				<path d="M897.198,202.829c3,0,5.42,2.43,5.42,5.42c0,2.99-2.42,5.42-5.42,5.42c-2.99,0-5.44-2.43-5.44-5.42
					c0-2.99,2.39-5.42,5.39-5.42H897.198z"/>
			</g>
			<g>
			</g>
		</g>
	</g>
</g>
</svg>
