<?xml version="1.0" encoding="utf-8"?>
<!-- Generator: Adobe Illustrator 16.0.0, SVG Export Plug-In . SVG Version: 6.00 Build 0)  -->
<!DOCTYPE svg PUBLIC "-//W3C//DTD SVG 1.1//EN" "http://www.w3.org/Graphics/SVG/1.1/DTD/svg11.dtd">
<svg version="1.1" id="Layer_1" xmlns="http://www.w3.org/2000/svg" xmlns:xlink="http://www.w3.org/1999/xlink" x="0px" y="0px"
	 width="1920px" height="1080px" viewBox="0 0 1920 1080" enable-background="new 0 0 1920 1080" xml:space="preserve">
<g>
	<g>
		<path d="M658.997,710.714c22.99,8.37,57.32,14.476,79.268-0.03c18.994-12.578,26.409-32.866,23.722-52.072
			c-2.406-17.192-12.931-33.513-30.518-42.588c-29.292-15.126-79.169-5.204-103.974,15.153
			C590.675,661.398,626.088,698.724,658.997,710.714L658.997,710.714z"/>
		<path d="M1028.085,709.433h-36.538l-17.488-78.65c-1.225,0.029-2.435,0.029-3.658,0.057c-4.418,0.1-8.893,0.196-13.396,0.211
			c-1.617,0-3.263-0.141-4.882-0.155l19.67,101.049h78.79C1050.597,719.506,1040.523,709.433,1028.085,709.433L1028.085,709.433z"/>
		<path d="M802.971,731.944h78.79c0-12.438-10.073-22.511-22.511-22.511h-30.996l21.667-75.555l-23.553-10.326L802.971,731.944z"/>
		<path d="M1222.162,181.61c-2.069,2.589-5.093,7.415-8.259,13.126l39.268,6.81c-0.591-2.32-1.604-4.755-3.278-7.062
			C1245.096,187.828,1235.543,183.397,1222.162,181.61L1222.162,181.61z"/>
		<path d="M667.073,233.879c-27.267,13.353-44.193,40.493-44.193,70.826c0,21.597,8.638,41.59,23.947,56.363
			c6.472-9.707,19.599-12.338,29.292-5.867l1.154,0.76l-12.016,18.024c-8.863,13.31-9.553,30.883-0.492,44.065
			c0.084,0.142,0.196,0.268,0.28,0.408c9.427,13.479,23.313,21.766,37.059,21.315c6.107-0.056,12.017-1.323,17.574-3.743
			c1.772-0.773,3.503-1.659,5.149-2.672c9.174-5.517,20.514-5.868,29.068,0.563l1.802,1.35c-7.008,9.328-16.349,16.715-27,21.373
			c-4.812,2.11-9.835,3.558-14.97,4.473c2.842,20.697,13.844,39.79,30.728,52.453c12.142,9.103,26.437,16.827,44.966,24.27
			c4.39,1.773,17.166,3.462,28.448,4.981c31.742,4.234,53.226,7.794,62.456,18.092c4.53,5.08,8.47,10.524,12.255,15.788
			c6.796,9.426,13.21,18.347,22.088,23.623c4.517,2.685,10.102,4.642,17.56,6.161c11.833,2.405,24.396,2.11,37.679,1.814
			c4.402-0.084,8.808-0.196,13.141-0.196c10.188,0,19.177-11.722,27.111-22.033c1.998-2.59,3.912-5.078,5.77-7.33
			c15.785-19.022,30.517-31.588,43.77-37.313c58.418-25.299,74.822-70.321,83.405-139.515c2.956-23.834-3.292-69.827-7.852-103.412
			c-1.87-13.731-3.544-26.071-4.445-35.37c-1.716-17.756,5.995-38.959,19.64-54c10.343-11.396,22.936-17.671,35.457-17.671h4.206
			c7.345-14.674,13.071-22.821,17.616-27.337c-2.321-26.929-20.345-46.121-49.553-51.663c-35.892-6.839-83.363,9.454-100.514,53.027
			c-2.056,5.192-3.63,10.637-5.305,16.405c-2.279,7.865-4.629,15.998-8.343,23.918c-29.04,62.047-139.966,134.703-205.319,134.703
			c-0.281,0-0.549,0-0.831,0c-27.21-0.254-51.705-20.613-55.744-46.333c-1.434-8.386-22.666-65.48-37.157-82.687
			c-23.792-28.238-50.483-31.544-87.43-36.089l-4.038-0.492c-12.451-1.547-24.144,4.545-28.547,14.787
			c-2.054,4.756-2.588,9.948-1.59,14.999l6.402,28.8c7.865-7.907,16.968-14.759,27.408-19.867
			c8.343-4.079,17.206-6.978,26.352-8.638c12.55-2.28,23.792,8.301,23.032,21.019C692.876,225.24,679.229,227.942,667.073,233.879
			L667.073,233.879z M1159.988,136.221c7.963,0,14.436,6.458,14.436,14.435s-6.459,14.437-14.436,14.437
			c-7.978,0-14.436-6.459-14.436-14.437C1145.566,142.665,1152.011,136.221,1159.988,136.221z M1060.122,353.485
			c-1.21,2.448-2.181,5.937-2.238,7.851c1.196,0.197,3.701,0.323,8.232-0.52c29.109-5.445,45.219-20.345,45.374-20.485l15.63,16.208
			c-0.829,0.803-20.709,19.627-56.84,26.41c-3.7,0.703-7.12,1.04-10.271,1.04c-9.16,0-15.997-2.939-20.359-8.764
			c-8.963-11.973-1.238-28.66,0.407-31.882l10.032,5.107L1060.122,353.485z M961.746,308.658l19.037,12.016
			c-6.598,10.482-12.198,23.44-12.985,29.532c0.407-0.042,0.872-0.126,1.391-0.225c20.136-3.77,48.231-46.921,61.204-73.246
			l20.19,9.948c-3.939,7.991-39.563,78.353-77.243,85.417c-2.574,0.478-4.924,0.703-7.062,0.703c-9.539,0-14.718-4.349-17.489-8.414
			C938.758,349.629,952.602,323.136,961.746,308.658L961.746,308.658z"/>
		<path d="M890.598,609.692c-6.22-6.133-11.382-12.985-16.293-19.809c-3.617-5.023-7.021-9.766-10.777-13.942
			c-3.405-3.421-18.474-6.331-32.165-8.441v33.694l36.61,16.054L890.598,609.692z"/>
		<path d="M1233.614,106.014c-3.842,2.562-8.935,2.575-12.732-0.056c-3.813-2.631-5.671-7.274-4.63-11.777
			c0.704-3.152,1.604-13.169-3.42-16.799c-1.885-1.322-12.155,1.535-20.906,7.442c-3.784,2.562-8.752,2.59-12.564,0.043
			c-4.924-3.236-11.943-6.275-16.615-6.866c0.365,3.335,1.745,8.471,3.572,13.437c36.301,8.372,59.754,33.95,63.539,68.646
			c2.672,0.479,5.247,1.069,7.71,1.731c1.492-1.055,1.927-2.054,2.097-2.519c1.59-4.46-1.477-12.973-4.038-17.32
			c-2.771-4.686-1.829-10.722,2.293-14.28c6.388-5.6,13.986-16.25,11.326-19.501C1243.435,101.09,1236.963,103.762,1233.614,106.014
			z"/>
		<path d="M1182.865,225.55c2.293-3.63,3.434-7.472,3.699-11.566h-0.66c-6.093,0-12.76,3.659-18.798,10.299
			c-5.515,6.063-9.524,13.831-11.847,21.526C1165.433,241.518,1177.054,234.808,1182.865,225.55L1182.865,225.55z"/>
		<path d="M638.117,589.051c17.644-11.662,38.128-18.009,59.275-18.359l-0.379-22.512c-25.424,0.437-50.075,8.076-71.291,22.09
			l-9.032,5.967l12.408,18.781L638.117,589.051z"/>
	</g>
	<g>
		<g>
			<path d="M625.933,816.094c13.465-30.461,3.434-64.664-22.512-85.164c-10.749-8.496-39.24-25.366-44.249-2.18
				c-4.756,22.004,5.445,46.514,13.718,66.479c5.825,14.055,12.101,30.266,21.653,42.293c5.43,6.838,10.692,4.01,11.748-3.742
				c0-0.015,0-0.029,0-0.042c-6.246-3.263-12.494-6.527-18.742-9.793c5.362,14.647,12.41,29.349,16.969,42.913
				c3.094,9.157,8.146,22.722-5.037,28.11c-8.991,3.672-19.923,0.717-28.829-1.547c-6.57-1.661-13.52-3.913-19.486-7.188
				c-8.372-4.616-8.441-12.552-4.84,2.081c1.632,6.611,0.689,0.62,2.139-3.588c1.336-3.884,4.193-7.161,6.866-10.173
				c7.105-7.963,17.77-10.975,25.93-17.685c4.784-3.925-1.323-19.474-5.698-21.852c-28.872-15.728-53.633,10.006-52.353,38.875
				c1.829,40.872,34.386,62.23,72.373,62.653c27.325,0.308,34.583-22.118,31.447-45.896c-1.843-14.014-5.81-27.563-10.665-40.817
				c-2.547-6.965-5.29-13.872-8.076-20.753c-1.055-2.587-2.096-5.177-3.138-7.767c-1.617-4.037,0.972,2.94-0.984-2.672
				c-2.575-7.387-15.801-28.604-18.741-9.808c0,0.015,0,0.03,0,0.03c3.912-1.252,7.824-2.493,11.748-3.744
				c4.32,5.656,2.547,3.699,1.605,1.971c-2.223-4.039,2.209,4.375-0.534-1.027c-2.309-4.544-4.476-9.16-6.613-13.788
				c-2.631-5.741-5.08-11.551-7.386-17.433c1.337,3.406-1.759-5.291-2.196-6.612c-1.983-6.148-0.253,0.295-1.52-5.656
				c-0.422-1.957,0.225-2.279-0.535-0.985c1.351-2.295,5.713-1.661,9.54-0.52c8.132,2.434,15.406,7.596,21.808,12.971
				c2.73,2.295,3.756,6.543,2.744,1.93c1.154,5.316-0.703,12.576-1.702,17.726c-1.308,6.769,0.505,13.999,4.052,19.866
				C618.659,817.206,623.344,821.947,625.933,816.094L625.933,816.094z"/>
		</g>
		<g>
			<path d="M642.325,725.584c-5.67,28.632-6.992,57.108-6.866,86.231c0.14,31.124,0.758,62.64,6.189,93.354
				c0.464,2.614,7.542,18.978,10.722,10.438c8.892-23.805,5.276-53.226,4.418-78.129c-1.014-29.321-0.958-58.797,2.433-87.991
				c0.803-6.95-1.914-15.013-5.458-20.865C651.905,725.57,643.956,717.354,642.325,725.584L642.325,725.584z"/>
		</g>
		<g>
			<path d="M672.18,867.561c0.957,1.309,1.913,2.617,2.871,3.926c1.266,1.73,4.192,4.348,6.683,3.488
				c21.456-7.429,37.889-22.638,49.16-42.139c4.276-7.399-0.042-35.849-11.537-36.187c-21.851-0.648-49.442,1.941-60.542,24.018
				c-10.89,21.653-3.377,49.173,7.725,69.235c9.258,16.729,24.902,33.177,44.446,36.835c25.339,4.757,44.628-14.94,48.301-38.509
				c0.647-4.164-2.757-19.037-9.174-17.741c-15.321,3.082-24.213,19.022-41.618,18.319c-13.197-0.536-24.34-8.176-32.106-18.347
				c1.223,1.59-3.589-6.796-1.831-3.165c-0.787-1.634-0.801-1.746-1.11-3.322c0.309,1.589,0.055-2.25,0.309-4.447
				c0.154-1.278,1.45-4.655,2.447-6.443c9.512-16.911,33.345-19.317,50.596-18.938c-3.842-12.058-7.697-24.114-11.538-36.187
				c-10.313,18.121-25.494,33.515-44.643,42.181c-2.476,1.127-3.405,4.206-3.418,6.711
				C667.129,854.532,667.481,861.145,672.18,867.561L672.18,867.561z"/>
		</g>
		<g>
			<path d="M807.917,805.375c-3.419,15.576-13.913,24.012-27.25,28.418c-8.952,2.978-6.274,23.764,2.917,21.161l0,0
				c18.319-5.177,37.102-14.984,42.096-34.865c3.855-15.405-1.842-35.623-12.859-46.948c-27.113-27.887-57.954,23.636-61.963,46.794
				c-5.248,30.334,12.507,65.493,39.944,78.79c27.577,13.365,65.213,1.745,80.365-24.606c2.575-4.489-0.646-23.372-8.202-21.5
				c-20.035,4.938-37.06,13.899-58.445,11.313c-8.118-0.986-16.236-3.715-23.145-8.09c-2.377-1.507-4.995-3.335-6.977-5.333
				c-2.534-2.546-2.225-1.299-2.063-3.757"/>
			<path d="M776.76,836.564c4.39-10.565,13.31-19.584,21.47-27.28"/>
		</g>
		<g>
			<path d="M860.108,790.866c0.323,23.596,4.587,47.907,6.668,71.447c2.547,28.813,3.11,58.924,10.735,86.937
				c1,3.657,9.244,19.457,13.073,9.763c3.967-10.061,2.686-23.61,2.39-34.133c-0.422-15.055-1.716-30.024-3.123-45.021
				c-2.561-27.268-3.785-58.362-13.254-84.349C872.898,785.352,859.826,770.874,860.108,790.866L860.108,790.866z"/>
		</g>
		<g>
			<path d="M840.733,817.192c30.714-19.064,67.141-6.839,88.162,20.427c1.041,1.339,3.194,5.123,3.39,5.532
				c0.296,0.604,1.815,5.206,1.478,3.742c0.534,2.363,0.056,7.64-2.659,12.451c-9.808,17.418-31.038,21.766-48.33,27.983
				c-7.006,2.519,0.239,23.02,6.232,24.103c23.047,4.193,49.342-0.971,60.233-23.792c9.876-20.695,0.196-47.822-9.821-66.409
				c-21.245-39.407-71.544-61.104-108.224-29.081C825.961,796.721,835.009,820.751,840.733,817.192L840.733,817.192z"/>
		</g>
		<g>
			<path d="M951.87,798.028c6.527,20.641,14.66,40.703,22.681,60.796c7.569,18.979,14.717,39.057,25.438,56.517
				c4.813,7.824,11.622,6.443,10.48-3.347c-5.021-42.9-28.729-84.094-46.077-123.068c-1.463-3.292-5.853-12.196-10.945-10.58
				C946.988,780.413,950.604,794.047,951.87,798.028L951.87,798.028z"/>
		</g>
		<g>
			<path d="M1076.105,816.965c-5.192-18.289-18.531-47.258-42.266-40.73c-20.893,5.74-29.658,32.951-29.293,51.944
				c0.549,27.886,14.914,56.616,40.633,68.774c9.033,4.262,21.428,5.585,30.587,1.279c9.624-4.517,10.243-16.504,8.81-25.706
				c-0.578-3.729-2.871-10.299-6.938-11.65c-7.865-2.602-17.784,1.972-26.282,1.098c-8.471-0.856-26.803-8.005-26.521-16.896
				c0.591-19.106,30.053-48.259,41.729-21.16c1.084,2.518,4.488,9.312,8.358,8.075
				C1079.891,830.388,1076.977,820.031,1076.105,816.965L1076.105,816.965z"/>
		</g>
		<g>
			<path d="M1113.094,829.615L1113.094,829.615c24.538-1.676,67.661-8.541,60.261-42.729c-1.66-7.654-6.093-22.878-16.012-22.835
				c-43.376,0.153-72.599,32.457-62.933,75.623c4.318,19.318,14.996,39.494,33.64,48.244c18.376,8.641,45.586,5.405,58.825-10.848
				c4.461-5.473-0.788-27.42-8.919-27.954c-15.716-1.042-30.096,5.612-46.121,2.911c-5.53-0.929-10.495-3.179-14.984-6.459
				c-3.461-2.518-4.601-7.878-3.419-2.361c-1.267-5.84,6.036-17.981,12.016-23.99"/>
			<path d="M1157.512,791.937"/>
		</g>
		<g>
			<path d="M1186.974,783.972c40.281,11.764,80.295,0.633,117.299-17.319c37.354-18.12,76.286-46.401,92.155-86.034
				c2.026-5.053-3.757-27.422-11.382-21.88c-14.97,10.877-27.449,25.227-41.618,37.202c-15.815,13.365-32.331,25.028-50.58,34.863
				c-34.246,18.458-73.008,26.888-110.531,35.174C1176.759,767.187,1182.949,782.805,1186.974,783.972L1186.974,783.972z"/>
		</g>
	</g>
</g>
</svg>
